<?xml version="1.0" standalone="no"?>
<!DOCTYPE svg PUBLIC "-//W3C//DTD SVG 20010904//EN"
 "http://www.w3.org/TR/2001/REC-SVG-20010904/DTD/svg10.dtd">
<svg version="1.0" xmlns="http://www.w3.org/2000/svg"
 width="1024.000000pt" height="1024.000000pt" viewBox="0 0 1024.000000 1024.000000"
 preserveAspectRatio="xMidYMid meet">
<metadata>
Created by potrace 1.14, written by Peter Selinger 2001-2017
</metadata>
<g transform="translate(0.000000,1024.000000) scale(0.100000,-0.100000)"
fill="#000000" stroke="none">
<path d="M0 5120 l0 -5120 2003 0 c1114 0 2008 4 2016 9 11 7 10 11 -5 20 -11
6 -14 11 -8 11 15 0 36 -25 27 -33 -3 -4 6 -7 21 -7 16 0 25 4 21 10 -3 6 -1
10 4 10 6 0 11 -4 11 -10 0 -7 898 -10 2675 -10 l2675 0 0 80 0 80 320 0 320
0 0 -80 0 -80 80 0 80 0 0 5120 0 5120 -5120 0 -5120 0 0 -5120z m4535 4520
c3 -5 1 -10 -4 -10 -6 0 -11 5 -11 10 0 6 2 10 4 10 3 0 8 -4 11 -10z m-125
-9 c0 -5 -9 -7 -20 -4 -11 3 -20 7 -20 9 0 2 9 4 20 4 11 0 20 -4 20 -9z m350
-15 c0 -3 -4 -8 -10 -11 -5 -3 -10 -1 -10 4 0 6 5 11 10 11 6 0 10 -2 10 -4z
m-612 -40 c11 -7 136 -16 270 -20 17 -1 32 -4 32 -8 0 -3 9 -4 20 -1 12 3 20
0 20 -7 0 -9 12 -11 45 -7 25 4 45 3 45 -1 0 -4 8 -8 18 -9 9 0 37 -3 62 -6
25 -3 52 -6 61 -6 9 -1 26 -10 38 -20 13 -11 31 -17 44 -14 18 4 19 3 7 -6
-12 -9 -11 -11 8 -11 13 0 36 -9 52 -20 15 -11 30 -17 33 -14 3 3 26 -8 50
-25 24 -16 47 -27 51 -24 3 4 6 1 6 -5 0 -7 6 -12 13 -12 15 0 90 -48 168
-107 31 -24 59 -43 64 -43 4 0 18 -12 31 -26 14 -14 29 -22 36 -18 7 4 8 3 4
-4 -4 -6 2 -17 14 -24 11 -7 20 -21 20 -31 0 -10 4 -16 9 -13 8 6 93 -61 100
-79 2 -5 19 -25 38 -44 18 -18 33 -35 33 -38 0 -2 6 -10 13 -17 28 -30 57 -67
57 -74 0 -4 21 -29 45 -55 25 -27 45 -53 45 -58 0 -9 39 -65 86 -124 9 -11 23
-36 32 -55 10 -19 21 -38 27 -42 5 -4 6 -10 2 -14 -4 -4 5 -20 20 -36 15 -15
28 -35 29 -43 1 -8 14 -39 29 -70 14 -31 24 -59 21 -62 -3 -3 1 -12 9 -20 19
-19 19 -49 0 -57 -8 -3 -15 -13 -15 -23 1 -17 1 -17 11 0 5 9 15 17 22 17 8 0
8 -3 -2 -9 -9 -6 -10 -11 -2 -15 15 -9 14 -24 -1 -29 -7 -2 -2 -2 12 0 l25 3
-24 -20 c-18 -15 -19 -20 -7 -20 9 0 16 -5 16 -11 0 -5 -4 -8 -8 -5 -4 2 -14
0 -22 -6 -12 -8 -12 -9 3 -4 9 3 17 0 17 -6 0 -9 3 -9 11 -1 13 13 42 6 33 -9
-3 -5 3 -17 15 -27 19 -17 19 -19 3 -35 -16 -16 -16 -17 2 -10 16 6 18 4 12
-12 -13 -32 -16 -73 -6 -79 6 -4 7 1 3 11 -4 12 -3 15 5 10 7 -4 12 -16 12
-27 0 -13 -4 -18 -12 -13 -8 5 -9 2 -4 -12 4 -10 9 -24 10 -31 1 -7 5 -15 9
-19 3 -4 1 -16 -4 -27 -8 -15 -8 -22 2 -29 11 -8 11 -11 1 -15 -10 -4 -10 -8
-1 -19 6 -8 15 -11 20 -8 11 6 11 1 3 -20 -7 -17 -44 -22 -44 -6 0 6 -5 10
-11 10 -8 0 -8 -4 0 -14 8 -10 8 -16 -2 -25 -8 -6 -16 -8 -20 -5 -3 3 -4 -2
-2 -13 2 -10 4 -21 4 -24 1 -3 12 -4 26 -1 18 3 25 0 23 -9 -2 -8 3 -13 10
-11 14 2 16 -14 2 -23 -6 -4 -8 -10 -5 -15 3 -5 0 -12 -6 -16 -8 -5 -10 1 -7
20 4 17 1 26 -8 26 -18 0 -27 -17 -14 -25 7 -4 9 -19 5 -35 -5 -22 -2 -29 12
-34 13 -3 10 -5 -7 -4 -55 1 -68 -3 -75 -19 -5 -15 -4 -16 6 -5 20 19 31 14
19 -8 -7 -14 -7 -20 0 -20 5 0 10 6 10 14 0 22 17 29 37 16 17 -11 17 -11 0
-6 -11 4 -16 2 -11 -5 3 -6 15 -9 25 -6 10 3 24 -1 30 -9 10 -12 9 -13 -5 -8
-9 3 -16 1 -16 -5 0 -6 -7 -11 -15 -11 -8 0 -15 -5 -15 -11 0 -6 7 -8 16 -5
13 5 15 -1 13 -32 -2 -20 -7 -42 -12 -49 -5 -7 -5 -18 -1 -24 5 -9 2 -10 -9
-6 -19 7 -20 6 -11 -17 3 -9 12 -16 20 -16 8 0 12 -10 11 -29 -2 -23 -5 -27
-15 -19 -9 8 -16 8 -25 -1 -9 -10 -8 -11 7 -5 16 6 18 4 13 -11 -9 -21 10 -48
27 -38 6 4 4 -1 -4 -11 -14 -17 -15 -17 -24 3 -11 26 -25 27 -23 2 0 -11 5
-17 11 -14 5 4 7 -3 4 -15 -4 -12 -2 -22 3 -22 5 0 9 4 9 8 0 5 6 9 13 9 7 0
13 -18 15 -46 1 -25 7 -48 13 -50 7 -2 6 -7 -2 -13 -10 -6 -6 -7 11 -2 14 4
27 11 28 15 4 11 22 12 22 2 0 -5 -11 -21 -25 -37 -22 -26 -27 -27 -56 -17
-18 6 -33 11 -33 11 -1 0 -2 -9 -3 -20 -1 -11 3 -20 9 -20 6 0 8 -3 5 -7 -4
-3 1 -11 9 -18 14 -10 15 -15 4 -36 -9 -15 -15 -19 -18 -11 -3 10 -7 10 -18 1
-17 -14 -18 -39 -1 -40 9 0 9 -2 0 -6 -7 -2 -13 -14 -13 -24 0 -14 4 -18 13
-13 7 5 6 0 -3 -10 -14 -18 -15 -17 -25 8 -6 15 -14 23 -18 20 -11 -11 -8 -44
3 -44 7 0 7 -6 1 -19 -9 -16 -8 -18 9 -14 11 3 18 8 16 12 -3 4 7 7 22 7 15 1
35 4 45 8 10 5 17 4 17 -3 0 -6 -3 -10 -7 -10 -5 1 -23 -2 -41 -6 -29 -7 -33
-11 -27 -32 4 -16 2 -22 -5 -18 -5 3 -10 14 -11 23 0 9 -3 12 -5 6 -3 -6 0
-23 5 -37 8 -19 15 -25 27 -20 12 4 15 3 10 -6 -5 -7 -17 -10 -28 -8 -15 4
-17 3 -8 -8 6 -8 7 -14 1 -17 -5 -1 -11 -12 -13 -23 -1 -11 -7 -23 -11 -26 -5
-3 -2 -9 7 -12 9 -4 17 1 21 13 7 21 32 33 40 19 4 -5 11 -7 16 -4 5 4 9 1 9
-5 0 -8 -9 -10 -26 -6 -21 6 -25 4 -21 -7 3 -8 -1 -25 -10 -37 -14 -20 -14
-22 6 -27 18 -5 19 -7 6 -17 -8 -6 -16 -22 -17 -36 -2 -14 -6 -27 -10 -30 -4
-3 -3 -12 2 -20 7 -10 10 -11 10 -2 0 6 5 12 12 12 9 0 9 -3 0 -12 -17 -17
-15 -31 3 -24 12 4 13 2 2 -15 -12 -20 -12 -20 -21 5 -6 14 -16 26 -23 26 -12
0 -17 -14 -25 -65 -3 -13 -10 -19 -23 -17 -16 2 -17 1 -5 -7 8 -5 17 -8 20 -6
3 2 7 -5 7 -16 1 -10 -3 -19 -8 -19 -6 0 -7 5 -3 12 4 7 3 8 -4 4 -6 -4 -8
-14 -5 -23 4 -11 3 -14 -5 -9 -8 5 -10 2 -6 -9 5 -11 10 -13 18 -5 9 7 19 5
32 -5 12 -10 14 -14 5 -13 -13 3 -16 -11 -12 -53 1 -6 7 -9 14 -6 8 3 14 -1
14 -9 0 -7 -4 -11 -9 -8 -4 3 -8 0 -8 -6 0 -6 -4 -8 -10 -5 -5 3 -10 15 -10
26 0 10 -4 19 -9 19 -5 0 -13 10 -17 23 l-8 22 -6 -25 c-4 -14 -2 -28 4 -32 6
-4 5 -12 -3 -22 -8 -9 -9 -16 -3 -16 6 0 12 6 15 13 3 9 7 9 17 0 15 -14 -12
-30 -52 -28 -15 0 -24 -3 -21 -8 3 -4 -3 -7 -12 -5 -26 4 -29 -18 -6 -41 13
-13 16 -21 8 -25 -9 -3 -8 -8 3 -16 11 -9 12 -13 3 -17 -7 -2 -13 -13 -13 -23
0 -20 23 -43 33 -33 10 10 8 25 -2 18 -5 -3 -12 -1 -15 4 -3 5 1 12 10 15 8 3
12 12 9 18 -4 7 1 4 9 -6 9 -11 16 -25 16 -32 0 -7 10 -20 21 -28 21 -14 21
-15 -16 -22 -20 -3 -33 -9 -28 -13 10 -7 12 -43 2 -51 -3 -3 -11 -14 -18 -25
-9 -15 -11 -16 -7 -2 7 21 -12 23 -20 2 -4 -8 -10 -15 -15 -15 -4 0 -5 7 -2
17 4 11 3 14 -5 9 -16 -10 -15 -46 1 -46 8 0 14 -6 14 -14 0 -13 -4 -13 -28
-1 -21 12 -29 12 -32 2 -3 -7 -6 -5 -6 6 -1 9 4 17 9 17 13 0 13 27 0 35 -5 3
-15 -5 -21 -19 -14 -29 2 -59 26 -50 7 3 16 0 21 -7 5 -8 3 -10 -6 -4 -9 5
-10 2 -5 -14 4 -12 2 -28 -4 -35 -8 -10 -8 -21 -1 -42 11 -27 11 -28 -8 -10
-15 13 -22 14 -28 5 -5 -8 -3 -10 7 -4 12 8 12 6 0 -8 -15 -19 -21 -17 -25 9
-2 10 -9 20 -17 22 -11 3 -11 2 1 -7 12 -9 12 -11 -3 -17 -9 -3 -17 -17 -17
-30 0 -13 -5 -24 -12 -24 -6 0 -9 -2 -7 -5 3 -2 14 -2 26 1 15 4 19 12 16 27
-4 17 -1 15 11 -7 18 -32 20 -46 6 -46 -5 0 -7 8 -4 18 5 15 4 15 -8 1 -7 -9
-20 -14 -28 -12 -8 2 -4 -3 10 -12 l25 -16 -25 5 c-24 5 -24 4 -6 -9 11 -8 16
-15 10 -15 -5 0 -3 -4 4 -9 10 -6 5 -10 -16 -14 -25 -5 -29 -10 -25 -30 3 -14
0 -28 -6 -31 -20 -13 -11 -26 17 -26 16 0 35 -9 46 -22 15 -17 15 -20 3 -15
-9 3 -19 2 -22 -3 -7 -12 -35 -1 -32 13 1 6 -5 12 -13 14 -10 2 -16 -4 -16
-16 0 -11 3 -19 6 -19 19 2 30 -4 30 -16 0 -10 -7 -12 -22 -9 -21 6 -21 4 5
-20 15 -15 32 -27 38 -27 5 0 9 -3 10 -7 0 -5 2 -16 4 -25 4 -20 -11 -25 -17
-6 -3 8 -13 5 -28 -10 -21 -20 -23 -25 -11 -43 7 -12 8 -18 2 -14 -7 4 -11 -4
-11 -19 0 -20 -4 -24 -17 -20 -15 5 -15 3 1 -7 16 -10 21 -9 33 7 7 10 13 13
13 6 0 -6 -9 -19 -19 -29 -14 -13 -17 -23 -11 -33 18 -28 10 -31 -14 -5 -13
14 -27 22 -30 17 -3 -4 4 -14 14 -22 14 -10 16 -18 10 -30 -5 -10 -6 -21 -2
-25 4 -5 1 -5 -5 -1 -7 4 -13 3 -13 -3 0 -5 -9 -8 -19 -6 -23 4 -60 -20 -48
-31 4 -5 12 -2 17 6 5 8 12 11 16 8 4 -4 16 -2 27 4 17 9 19 8 14 -6 -4 -10
-1 -16 7 -16 15 0 28 -24 19 -34 -3 -3 -12 2 -19 12 -12 16 -13 16 -14 0 0
-21 -28 -50 -41 -43 -5 4 -9 4 -9 1 0 -3 14 -12 30 -21 21 -11 30 -23 30 -40
0 -18 -4 -23 -15 -19 -11 5 -13 10 -5 19 8 9 8 15 0 20 -5 3 -10 0 -10 -7 0
-10 -2 -10 -9 1 -6 9 -8 5 -8 -13 0 -14 4 -26 9 -26 6 0 7 -8 3 -17 -4 -10 -8
-23 -8 -30 0 -7 -6 -14 -14 -17 -10 -4 -11 -1 -3 13 13 25 -9 34 -30 13 -11
-12 -12 -16 -2 -20 6 -2 12 -10 12 -19 0 -12 -2 -12 -16 1 -24 25 -37 19 -31
-13 5 -23 1 -31 -16 -39 -21 -11 -20 -11 6 -7 15 2 27 0 27 -5 0 -5 3 -15 6
-24 3 -9 1 -16 -5 -16 -6 0 -11 7 -11 15 0 23 -38 18 -52 -7 -7 -13 -11 -27
-9 -33 8 -25 7 -54 0 -49 -5 3 -9 0 -9 -5 0 -6 -9 -11 -20 -11 -24 0 -39 -29
-20 -40 7 -4 9 -13 5 -19 -5 -9 -10 -9 -20 -1 -9 8 -15 8 -20 0 -3 -5 0 -10 7
-10 7 0 2 -7 -10 -16 -13 -9 -26 -13 -30 -9 -4 4 -1 10 6 12 20 8 14 22 -8 16
-26 -7 -26 -30 1 -38 l21 -7 -23 -24 c-24 -26 -18 -34 7 -9 9 8 20 15 26 15 6
0 -2 -10 -18 -22 -16 -12 -32 -27 -36 -33 -5 -6 -8 -5 -8 3 0 7 -6 12 -12 11
-28 -3 -36 2 -31 21 4 15 2 19 -9 15 -8 -3 -28 -7 -44 -9 -16 -2 -32 -4 -35
-5 -4 0 -9 -10 -12 -22 -4 -16 -3 -18 8 -9 9 8 14 7 18 -4 3 -8 -4 -18 -19
-25 -15 -6 -24 -7 -24 -1 0 24 -42 8 -60 -22 -12 -20 -20 -26 -20 -17 0 18
-37 33 -46 18 -3 -5 9 -21 26 -36 27 -22 29 -28 16 -35 -9 -5 -21 -6 -28 -2
-7 4 -8 3 -4 -4 7 -12 -11 -17 -43 -13 -7 2 -10 -2 -7 -7 3 -6 -1 -12 -9 -15
-9 -4 -12 -1 -8 9 6 16 -23 19 -45 6 -9 -7 -10 -15 -2 -33 9 -21 10 -21 6 -2
-2 12 2 24 10 27 8 3 13 2 13 -2 -4 -27 3 -30 34 -12 19 11 46 19 60 18 27 -2
38 -17 15 -19 -7 -1 -23 -3 -36 -4 -12 -1 -26 -6 -30 -10 -4 -5 0 -6 8 -3 17
6 45 -18 31 -27 -5 -3 -16 -2 -25 1 -11 4 -14 0 -13 -15 1 -14 6 -20 15 -16 7
2 11 1 7 -4 -3 -5 -2 -11 2 -14 5 -2 3 -2 -4 -1 -7 2 -16 -2 -20 -9 -11 -18
-22 34 -11 55 4 9 4 19 -1 22 -8 5 -26 -40 -23 -56 2 -10 -2 -10 -32 2 -30 11
-35 30 -8 31 13 0 12 2 -6 9 -29 12 -51 3 -49 -20 1 -10 5 -16 9 -14 5 3 6 9
3 14 -3 5 -1 11 4 14 5 3 11 -7 14 -22 5 -28 -7 -44 -29 -35 -6 2 -15 0 -19
-6 -3 -6 -11 -11 -16 -11 -6 0 -7 5 -4 10 7 11 3 12 -19 4 -8 -3 -12 -12 -9
-21 4 -11 2 -14 -6 -9 -7 5 -9 16 -5 28 4 14 3 18 -5 13 -7 -4 -18 -1 -26 5
-12 10 -15 9 -15 -4 0 -9 5 -16 11 -16 6 0 9 -6 6 -12 -2 -7 -12 -12 -21 -10
-9 2 -19 -4 -22 -13 -3 -8 -10 -15 -15 -15 -4 0 -6 7 -3 15 10 24 -12 17 -23
-7 -6 -15 -12 -18 -17 -10 -4 7 -2 12 3 12 6 0 11 12 11 26 0 20 3 24 13 17
10 -9 47 -14 47 -7 0 14 -15 34 -26 34 -8 0 -14 5 -14 12 0 6 -3 8 -6 5 -4 -4
-1 -13 6 -22 15 -18 0 -20 -19 -2 -10 8 -12 8 -7 0 9 -16 -10 -26 -31 -15 -22
11 -43 5 -43 -13 0 -23 -17 -26 -36 -8 -17 17 -18 17 -11 1 9 -24 -9 -23 -35
2 -23 21 -38 26 -38 11 0 -5 9 -11 20 -14 11 -3 20 -10 20 -17 0 -6 -4 -9 -9
-5 -5 3 -12 1 -16 -5 -3 -5 1 -10 10 -10 9 0 13 -4 10 -10 -3 -5 -22 -10 -41
-10 -19 0 -34 -4 -34 -9 0 -5 -9 -7 -20 -4 -14 4 -20 1 -18 -7 4 -16 -38 -23
-62 -10 -13 7 -22 6 -32 -4 -12 -11 -17 -11 -36 4 -11 10 -18 21 -14 25 4 4
-3 2 -15 -4 -13 -6 -23 -18 -23 -25 0 -17 -38 -28 -46 -14 -4 6 -10 5 -15 -3
-6 -9 -9 -10 -9 -2 0 6 -11 10 -25 8 -16 -1 -25 3 -25 11 0 16 -2 16 -24 8
-13 -5 -15 -15 -11 -43 5 -31 4 -34 -7 -21 -17 19 -62 45 -53 31 3 -6 0 -11
-9 -11 -8 0 -16 -6 -19 -12 -6 -18 -77 20 -87 47 -5 11 -9 14 -9 8 -1 -19 -41
-16 -41 3 0 8 -16 22 -35 30 -43 17 -49 18 -42 1 3 -8 1 -20 -4 -28 -7 -11
-11 -11 -21 -1 -9 9 -10 15 -2 20 16 10 10 48 -9 70 -9 10 -17 27 -17 38 0 15
-2 16 -9 4 -6 -8 -7 -18 -4 -23 7 -11 -18 -28 -30 -20 -4 2 -2 15 6 27 13 20
13 22 -4 22 -11 0 -19 -4 -19 -8 0 -4 -5 -8 -11 -8 -5 0 -8 4 -5 9 3 4 0 20
-7 34 -10 23 -17 26 -49 22 -40 -6 -56 8 -37 31 6 8 9 17 5 21 -3 3 -6 1 -6
-6 0 -20 -17 -3 -24 23 -3 14 -18 38 -32 53 -26 27 -26 27 -19 4 5 -16 4 -21
-4 -17 -6 4 -11 14 -11 22 0 8 -6 14 -12 15 -10 0 -10 2 0 6 18 7 15 21 -5 19
-10 0 -19 9 -23 24 -4 16 -13 25 -25 25 -12 0 -19 8 -20 22 -1 12 1 21 4 20 6
-2 11 7 11 22 0 5 -12 12 -26 15 -19 5 -24 11 -19 25 4 13 -3 22 -26 33 -18 9
-27 18 -20 22 8 5 8 13 1 27 -6 11 -16 16 -22 13 -7 -5 -9 0 -6 14 4 12 2 22
-3 22 -5 0 -8 3 -8 8 1 4 1 16 -1 27 l-1 20 -8 -20 c-8 -19 -9 -19 -17 5 -4
14 -8 29 -9 33 0 4 -11 13 -24 20 -20 10 -25 20 -25 57 -1 32 -5 44 -14 42 -9
-2 -12 4 -7 17 4 13 0 23 -12 30 -10 6 -13 11 -8 11 6 0 -1 6 -14 13 -14 6
-26 19 -29 27 -3 9 2 7 12 -5 15 -20 15 -20 16 2 0 13 5 22 12 20 6 -1 14 6
16 17 3 16 0 18 -24 12 -27 -7 -28 -7 -11 12 9 10 14 22 11 25 -4 4 -13 -1
-20 -11 -7 -9 -16 -14 -20 -10 -4 4 -1 14 6 23 7 8 9 15 5 15 -4 0 -2 6 4 14
9 11 8 15 -5 20 -9 4 -14 9 -11 13 4 3 1 15 -5 27 -7 11 -13 29 -15 39 -2 11
-10 28 -18 39 -10 15 -11 26 -4 40 7 14 6 18 -5 18 -11 0 -12 5 -3 25 7 14 18
23 24 20 7 -2 13 0 13 5 0 6 -2 10 -4 10 -2 0 -12 3 -22 7 -11 4 -15 3 -11 -4
4 -6 0 -16 -8 -23 -11 -9 -14 -8 -13 7 0 10 -3 26 -7 36 -5 12 -3 17 8 17 26
0 28 16 7 43 -22 27 -26 42 -10 32 17 -11 11 10 -8 26 -10 8 -23 14 -30 11 -7
-2 -12 6 -12 22 0 14 -5 26 -11 26 -6 0 -8 7 -5 17 4 9 2 19 -4 23 -6 4 -12
21 -12 38 -1 17 -7 33 -14 36 -18 7 -15 66 4 66 12 0 12 2 1 16 -8 9 -12 27
-11 40 2 14 -5 30 -17 40 -16 14 -18 21 -9 32 17 20 18 60 2 66 -17 7 -19 36
-1 36 7 0 14 11 15 25 1 14 -4 25 -11 25 -9 0 -8 3 1 9 11 7 11 9 -2 14 -9 4
-13 13 -10 22 3 8 10 12 15 9 5 -3 6 2 3 10 -3 9 -11 13 -18 9 -6 -4 -4 2 4
12 11 14 12 19 3 22 -16 6 -17 79 -2 89 6 3 9 17 6 30 -2 13 -1 21 3 19 12 -7
4 53 -8 68 -7 8 -9 17 -5 21 14 14 8 41 -12 59 -18 17 -18 18 -2 13 12 -4 16
-2 11 6 -10 16 -14 117 -5 123 4 2 7 46 6 98 -2 89 -1 94 17 89 14 -3 16 -7 8
-12 -7 -4 -8 -10 -4 -12 5 -3 18 4 29 15 11 11 14 17 7 13 -10 -6 -11 -1 -6
18 5 21 3 25 -8 21 -9 -4 -22 4 -31 19 -16 24 -16 25 3 21 24 -5 37 12 21 28
-21 21 -11 68 25 121 39 56 72 77 104 69 12 -3 20 0 20 6 0 7 -4 10 -9 6 -5
-3 -12 -1 -16 5 -3 5 1 10 9 10 8 0 18 -5 21 -10 4 -6 10 -8 15 -5 19 12 19
-15 1 -56 -38 -85 -14 -160 65 -207 51 -30 146 -27 188 5 67 53 89 122 61 189
-26 64 -26 83 1 100 27 18 34 41 7 26 -9 -6 -29 -6 -46 -1 -16 5 -34 6 -39 3
-5 -3 -15 -1 -23 6 -10 8 -16 7 -23 -6 -7 -12 -19 -15 -51 -12 -22 2 -41 0
-41 -5 0 -5 -11 -7 -25 -5 -14 3 -25 1 -25 -4 0 -11 -32 -7 -41 6 -4 4 -16 3
-27 -3 -11 -6 -29 -11 -40 -11 -10 0 -39 -11 -64 -24 -34 -18 -49 -21 -57 -13
-8 8 -11 8 -11 -2 0 -7 -5 -9 -12 -5 -9 5 -9 2 1 -9 12 -15 11 -17 -8 -17 -12
0 -19 -4 -16 -10 3 -5 0 -10 -8 -10 -9 0 -14 9 -13 24 0 13 3 24 6 23 3 -1 6
1 8 6 1 4 -1 7 -5 6 -12 -1 -25 45 -13 49 5 2 8 7 5 12 -6 10 24 70 35 70 4 0
11 8 15 18 5 13 3 14 -6 5 -14 -14 -39 -6 -39 12 0 7 -6 18 -14 24 -10 9 -15
8 -19 -4 -4 -8 -13 -12 -21 -9 -11 4 -14 -1 -13 -15 1 -13 6 -20 14 -17 7 3
15 1 19 -5 3 -5 14 -7 24 -4 14 5 17 2 13 -13 -3 -15 -12 -18 -41 -16 -22 1
-36 7 -34 14 1 6 -2 9 -7 5 -6 -3 -17 8 -26 25 -9 17 -20 28 -25 25 -15 -9
-18 8 -19 90 0 101 3 145 13 168 5 9 6 28 4 42 -3 13 -1 26 4 27 6 2 12 26 13
53 2 28 9 68 14 90 7 27 7 42 -1 46 -6 4 -7 12 -3 19 10 17 14 100 4 100 -4 0
-8 42 -9 93 0 50 -1 103 -2 117 0 40 11 211 18 260 9 72 43 195 54 198 6 2 7
8 4 14 -4 5 -1 21 5 34 17 38 28 65 42 114 16 54 117 254 159 315 16 24 30 47
30 52 0 4 11 22 25 38 90 107 109 125 131 125 13 0 24 5 24 10 0 6 4 10 10 10
14 0 56 46 53 57 -2 6 5 13 17 16 11 3 18 1 14 -4 -3 -5 1 -9 9 -9 7 0 28 16
45 36 18 20 32 30 32 23 0 -10 3 -10 12 -1 16 16 31 15 22 0 -4 -7 8 4 28 25
19 20 42 37 51 37 9 0 19 5 23 12 5 7 3 8 -6 3 -8 -5 -11 -4 -7 3 4 5 15 8 25
5 10 -2 28 5 41 16 13 11 28 18 32 15 5 -3 9 0 9 6 0 6 6 10 13 8 6 -2 23 8
36 21 16 16 26 20 30 12 5 -8 15 -4 32 11 48 44 81 61 90 47 4 -7 5 -17 2 -22
-6 -10 36 1 53 14 6 5 35 14 65 20 30 6 60 16 68 23 12 9 14 8 9 -5 -4 -9 -1
-16 8 -16 7 0 15 6 18 14 7 17 46 17 46 1 0 -8 4 -7 10 3 10 16 36 19 58 5z
m1207 -176 c3 -5 2 -10 -4 -10 -5 0 -13 5 -16 10 -3 6 -2 10 4 10 5 0 13 -4
16 -10z m80 -127 c23 -35 8 -44 -17 -10 -11 15 -26 27 -33 27 -8 0 -16 4 -19
8 -13 22 55 -3 69 -25z m51 2 c10 -8 14 -15 7 -15 -19 0 -43 11 -43 21 0 13
14 11 36 -6z m123 -4 c9 -6 6 -8 -13 -8 -14 0 -23 3 -20 8 7 11 15 11 33 0z
m86 -11 c3 -5 1 -10 -4 -10 -6 0 -11 5 -11 10 0 6 2 10 4 10 3 0 8 -4 11 -10z
m-60 -99 c-3 -5 -1 -12 5 -16 5 -3 10 -11 10 -17 0 -6 -9 -3 -20 7 -24 22 -26
35 -4 35 8 0 13 -4 9 -9z m35 -16 c0 -8 -2 -15 -4 -15 -2 0 -6 7 -10 15 -3 8
-1 15 4 15 6 0 10 -7 10 -15z m460 -1575 c0 -5 -7 -10 -16 -10 -8 0 -12 5 -9
10 3 6 10 10 16 10 5 0 9 -4 9 -10z m40 -50 c0 -5 -2 -10 -4 -10 -3 0 -8 5
-11 10 -3 6 -1 10 4 10 6 0 11 -4 11 -10z m-10 -30 c10 -19 10 -20 -9 -8 -22
13 -28 28 -11 28 5 0 14 -9 20 -20z m13 -123 c18 -19 17 -30 -4 -57 -16 -22
-19 -23 -19 -6 0 11 -8 28 -17 39 -17 19 -17 20 0 14 11 -4 17 -1 17 8 0 18 8
19 23 2z m1044 -38 c19 -7 24 -15 20 -30 -4 -16 -2 -19 15 -13 17 5 20 3 15
-10 -4 -10 2 -35 12 -56 10 -21 15 -44 11 -51 -5 -7 -6 -19 -3 -28 3 -10 2
-12 -4 -5 -4 6 -18 13 -31 17 -19 4 -22 2 -17 -11 15 -36 17 -52 6 -52 -7 0
-9 5 -6 10 4 6 2 17 -5 24 -6 8 -13 24 -15 35 -6 32 -37 66 -60 65 -31 0 -105
-52 -105 -73 0 -10 -7 -24 -15 -31 -12 -10 -13 -7 -6 17 4 15 6 47 3 69 -5 51
34 120 78 137 17 7 71 0 107 -14z m-1073 -61 c-5 -8 0 -9 15 -5 20 5 22 3 17
-19 -4 -14 -2 -24 4 -24 6 0 8 -5 5 -10 -8 -14 -64 42 -58 58 3 6 9 12 15 12
5 0 6 -5 2 -12z m-64 -78 c0 -5 -2 -10 -4 -10 -3 0 -8 5 -11 10 -3 6 -1 10 4
10 6 0 11 -4 11 -10z m37 -22 c-3 -8 -6 -5 -6 6 -1 11 2 17 5 13 3 -3 4 -12 1
-19z m39 -1 c-4 -32 -12 -44 -36 -50 -13 -3 -20 0 -20 9 0 8 6 11 15 8 13 -6
18 5 14 32 -1 5 20 23 28 24 1 0 0 -11 -1 -23z m21 1 c-3 -8 -6 -5 -6 6 -1 11
2 17 5 13 3 -3 4 -12 1 -19z m-3452 -49 c-3 -4 2 -12 11 -17 9 -5 12 -12 7
-15 -5 -3 -20 13 -33 36 -23 41 -23 41 -2 23 12 -10 19 -22 17 -27z m55 -23
c0 -3 -4 -8 -10 -11 -5 -3 -10 -1 -10 4 0 6 5 11 10 11 6 0 10 -2 10 -4z
m3368 -12 c5 3 9 -1 9 -9 0 -7 -9 -16 -19 -18 -10 -3 -16 -1 -13 3 3 5 1 11
-5 15 -5 3 -10 11 -10 17 0 7 5 6 15 -2 8 -6 18 -9 23 -6z m1118 -19 c4 -8 1
-21 -5 -29 -11 -13 -6 -46 8 -46 3 0 6 -25 7 -55 0 -30 -3 -55 -6 -55 -4 0 -6
-15 -5 -32 1 -18 -3 -51 -10 -73 -6 -22 -10 -46 -7 -53 2 -7 -1 -19 -8 -27 -6
-8 -9 -18 -6 -23 6 -11 -59 -84 -67 -76 -6 7 -1 24 20 73 8 19 13 46 9 62 -3
15 1 48 8 73 8 27 13 80 12 128 -3 83 12 148 34 148 6 0 13 -7 16 -15z m-1151
-135 c3 -6 -4 -10 -17 -10 -18 0 -20 2 -8 10 19 12 18 12 25 0z m38 -47 c-6
-16 -5 -16 10 -4 15 12 17 12 11 -3 -3 -9 -10 -16 -14 -16 -13 0 -22 19 -15
30 10 16 15 11 8 -7z m-3383 -28 c-7 -9 -15 -13 -17 -11 -7 7 7 26 19 26 6 0
6 -6 -2 -15z m3283 -46 c-9 -9 -12 -7 -10 9 1 14 5 18 11 12 7 -7 6 -14 -1
-21z m992 -140 c0 -108 -2 -122 -19 -135 -11 -8 -22 -14 -25 -14 -11 0 -4 100
7 113 6 7 8 26 6 42 -11 64 -12 101 -2 118 22 41 33 -2 33 -124z m-995 -39 c0
-5 -4 -10 -10 -10 -5 0 -10 5 -10 10 0 6 5 10 10 10 6 0 10 -4 10 -10z m1113
-70 c-3 -12 -8 -19 -11 -16 -5 6 5 36 12 36 2 0 2 -9 -1 -20z m-147 -110 c0
-11 -4 -20 -8 -20 -4 0 -5 -9 -3 -19 5 -27 -5 -62 -16 -55 -9 5 -13 -8 -10
-37 1 -9 -6 -22 -16 -30 -11 -9 -14 -10 -9 -1 4 7 1 12 -8 12 -13 0 -16 -13
-18 -62 0 -35 -1 -69 -1 -75 1 -7 -3 -13 -8 -13 -5 0 -7 22 -6 49 1 27 -1 47
-4 45 -8 -5 -20 66 -13 78 3 4 13 4 24 -2 21 -11 34 1 44 40 7 24 6 24 -8 6
-9 -11 -16 -26 -16 -34 0 -7 -4 -11 -9 -7 -12 7 -11 65 1 65 5 0 6 5 3 10 -4
6 -11 7 -17 4 -6 -4 -8 -2 -5 3 4 6 18 13 32 15 22 5 25 3 19 -16 -6 -21 -6
-21 10 -1 8 11 16 27 16 36 0 31 26 40 26 9z m-159 -230 c-1 -22 -17 -28 -17
-7 0 12 9 27 16 27 2 0 2 -9 1 -20z m-92 -40 c3 -5 1 -10 -4 -10 -6 0 -11 5
-11 10 0 6 2 10 4 10 3 0 8 -4 11 -10z m85 0 c0 -5 -4 -10 -10 -10 -5 0 -10 5
-10 10 0 6 5 10 10 10 6 0 10 -4 10 -10z m-73 -48 c3 -21 1 -22 -19 -11 -14 8
-18 14 -10 17 6 2 9 8 6 14 -4 6 -1 9 6 6 7 -2 15 -14 17 -26z m-797 -54 c0
-12 -18 -10 -26 3 -4 8 -9 7 -15 -2 -7 -12 -9 -12 -9 0 0 11 -5 10 -24 -3 -14
-9 -27 -12 -30 -8 -9 14 9 27 39 29 16 1 31 7 34 14 3 9 8 7 17 -6 8 -10 14
-22 14 -27z m-16 -27 c3 -5 -3 -11 -14 -14 -22 -6 -37 8 -18 16 20 8 26 8 32
-2z m1 -51 c3 -5 -3 -10 -14 -10 -11 0 -23 5 -26 10 -3 6 3 10 14 10 11 0 23
-4 26 -10z m-15 -24 c0 -3 -4 -8 -10 -11 -5 -3 -10 -1 -10 4 0 6 5 11 10 11 6
0 10 -2 10 -4z m-3090 -22 c0 -8 -5 -12 -10 -9 -6 4 -8 11 -5 16 9 14 15 11
15 -7z m3100 -48 c0 -3 -4 -8 -10 -11 -5 -3 -10 -1 -10 4 0 6 5 11 10 11 6 0
10 -2 10 -4z m852 -63 c-6 -2 -9 -10 -6 -15 4 -7 2 -8 -5 -4 -13 9 -5 26 12
25 9 0 8 -2 -1 -6z m1028 -22 c0 -12 -31 -43 -37 -37 -4 4 27 46 34 46 2 0 3
-4 3 -9z m50 -5 c0 -3 -4 -8 -10 -11 -5 -3 -10 -1 -10 4 0 6 5 11 10 11 6 0
10 -2 10 -4z m-170 -50 c0 -3 -4 -8 -10 -11 -5 -3 -10 -1 -10 4 0 6 5 11 10
11 6 0 10 -2 10 -4z m58 -42 c11 -15 62 -45 62 -37 0 5 -9 14 -20 21 -11 7
-20 18 -20 25 0 8 3 9 8 1 4 -6 17 -16 28 -22 16 -8 20 -18 17 -37 -3 -14 -1
-25 5 -25 6 0 8 9 5 20 -3 11 0 20 6 20 6 0 11 6 11 14 0 26 16 26 18 0 1 -13
-3 -24 -10 -24 -15 0 0 -15 15 -15 7 -1 11 -7 9 -14 -1 -7 3 -19 9 -27 8 -10
8 -14 0 -14 -7 0 -8 -8 -2 -22 4 -13 6 -29 3 -37 -2 -8 0 -11 5 -8 6 4 9 -11
8 -36 -1 -23 2 -51 8 -62 7 -13 6 -20 -1 -23 -9 -3 -9 -9 -2 -23 8 -15 7 -19
-4 -19 -8 0 -16 6 -19 13 -2 6 -3 -5 -2 -26 1 -21 6 -41 10 -45 3 -4 6 -2 5 3
-1 6 -2 18 -1 28 2 26 21 10 21 -18 0 -32 -10 -56 -21 -49 -5 3 -9 0 -9 -5 0
-6 3 -11 8 -11 4 0 7 -18 7 -40 0 -22 -4 -40 -8 -40 -5 0 -5 -4 -2 -10 3 -5
-1 -23 -10 -40 -8 -16 -13 -30 -9 -30 4 0 2 -6 -4 -12 -5 -7 -9 -32 -8 -56 1
-24 -2 -46 -6 -48 -5 -3 -8 -14 -8 -25 0 -10 -3 -19 -8 -19 -4 0 -6 -18 -4
-39 2 -22 -3 -61 -11 -88 -18 -55 -31 -123 -28 -140 1 -6 -3 -14 -9 -18 -8 -5
-8 -11 1 -21 9 -11 8 -15 -5 -20 -9 -3 -14 -10 -11 -14 3 -5 1 -11 -5 -15 -5
-3 -10 -14 -10 -24 0 -9 -11 -32 -24 -50 -14 -19 -28 -48 -32 -65 -3 -17 -9
-33 -13 -36 -16 -13 -53 -98 -47 -109 4 -6 1 -11 -9 -11 -9 0 -14 -4 -11 -9 4
-5 2 -11 -3 -13 -5 -1 -11 -11 -13 -22 -1 -10 -18 -34 -35 -54 -18 -20 -33
-39 -33 -43 0 -17 -97 -165 -137 -208 -12 -14 -19 -29 -16 -34 3 -6 1 -7 -5
-3 -6 3 -28 -14 -49 -41 -21 -26 -58 -65 -82 -87 -59 -55 -100 -99 -100 -110
0 -4 -19 -18 -43 -30 -24 -11 -56 -34 -73 -51 -16 -16 -43 -39 -59 -50 -15
-11 -34 -26 -41 -32 -8 -7 -18 -13 -24 -13 -6 0 -11 -5 -11 -11 0 -5 -4 -8 -9
-5 -4 3 -16 -3 -26 -14 -10 -11 -24 -20 -32 -20 -8 0 -11 -5 -7 -12 4 -7 3 -8
-4 -4 -7 4 -31 -6 -54 -22 -37 -25 -86 -52 -173 -95 -10 -5 -39 -20 -62 -33
-24 -12 -43 -21 -43 -19 0 2 -46 -18 -102 -45 -57 -28 -108 -50 -115 -50 -6 0
-15 -5 -19 -12 -7 -11 -3 -10 61 9 11 3 32 6 48 6 23 0 25 2 15 15 -10 13 -10
14 0 8 7 -4 12 -2 12 4 0 6 5 8 10 5 6 -4 7 -11 4 -17 -4 -6 1 -8 16 -3 15 5
20 3 16 -3 -3 -6 -2 -13 4 -17 5 -3 10 -1 10 5 0 6 4 9 9 5 5 -3 12 -2 15 3 2
4 -4 14 -16 21 -11 7 -17 8 -14 2 5 -7 1 -8 -11 -4 -15 6 -14 8 9 18 14 5 34
17 45 26 19 16 46 20 51 7 5 -18 1 -39 -7 -33 -6 3 -8 -5 -5 -19 3 -16 -2 -29
-13 -36 -16 -10 -16 -11 -1 -6 10 3 20 1 23 -4 3 -5 12 -7 19 -4 24 9 29 -16
9 -39 -11 -12 -23 -30 -26 -39 -4 -11 -13 -15 -29 -11 -18 4 -20 3 -8 -6 8 -6
24 -11 35 -11 17 0 17 -2 5 -10 -10 -6 -11 -10 -2 -10 6 0 12 -5 12 -11 0 -5
-4 -7 -10 -4 -14 9 -12 -28 3 -44 10 -11 9 -13 -5 -8 -13 4 -18 1 -19 -11 0
-9 -3 -12 -5 -5 -7 16 -64 -17 -64 -37 0 -13 -1 -13 -11 0 -8 11 -12 12 -16 2
-2 -6 -9 -10 -14 -6 -5 3 -9 0 -9 -5 0 -6 -11 -11 -24 -11 -20 0 -24 4 -21 25
3 34 -10 40 -23 10 -9 -19 -9 -23 3 -19 9 4 12 0 8 -14 -3 -13 -11 -18 -23
-15 -10 3 -21 0 -24 -6 -4 -5 -14 -7 -22 -4 -9 3 -20 0 -25 -8 -6 -10 -9 -10
-9 -1 0 6 -7 12 -15 12 -8 0 -15 5 -15 10 0 6 -5 10 -10 10 -7 0 -7 -7 0 -21
13 -24 11 -28 -21 -34 -13 -3 -25 -9 -27 -15 -2 -6 -8 -7 -13 -4 -6 3 -17 0
-26 -8 -14 -11 -16 -11 -10 4 4 12 1 16 -14 15 -10 -1 -19 -5 -19 -9 0 -5 -11
-13 -25 -18 -14 -5 -25 -15 -25 -22 0 -9 -3 -9 -12 0 -14 14 -32 16 -24 3 3
-5 -8 -11 -25 -15 -21 -4 -28 -10 -23 -18 6 -9 3 -9 -9 1 -22 18 -22 32 1 25
14 -5 14 -4 2 4 -17 13 -40 -2 -40 -25 0 -8 -4 -12 -9 -8 -5 3 -13 0 -16 -5
-4 -7 -19 -8 -37 -5 -20 5 -28 4 -24 -3 3 -6 2 -13 -3 -16 -5 -4 -12 -2 -16 4
-10 16 -35 12 -29 -5 4 -11 0 -15 -16 -15 -15 0 -20 -4 -17 -15 4 -8 2 -17 -3
-20 -6 -4 -10 1 -10 9 0 9 -13 22 -29 30 -26 14 -30 14 -42 -1 -10 -12 -10
-15 -1 -9 6 4 12 2 12 -3 0 -13 -3 -13 -24 -5 -9 3 -14 10 -11 14 3 5 1 26 -3
48 -7 28 -6 41 3 48 7 5 16 20 20 34 5 19 4 22 -4 10 -9 -13 -11 -13 -11 3 0
9 5 17 10 17 6 0 10 9 10 21 0 11 4 28 10 38 15 29 28 134 19 156 -7 19 -8 19
-8 -2 -1 -13 -5 -23 -11 -23 -5 0 -10 -6 -10 -13 0 -23 -36 -57 -59 -57 -11 0
-21 -4 -21 -10 0 -5 -8 -7 -17 -3 -10 3 -3 -7 15 -24 17 -16 32 -36 32 -43 0
-14 -39 -82 -53 -91 -5 -3 -8 -9 -7 -13 5 -19 -26 -64 -61 -88 -21 -15 -39
-35 -39 -44 0 -14 -2 -14 -16 1 -9 9 -24 13 -35 10 -11 -4 -29 -7 -42 -9 -13
-1 -28 -6 -35 -10 -7 -4 -12 -3 -12 3 0 6 -11 6 -32 0 -18 -5 -48 -9 -67 -9
-22 0 -40 -8 -54 -22 -20 -23 -20 -23 -15 -2 4 16 1 21 -11 18 -9 -1 -33 -6
-54 -9 -21 -3 -35 -10 -32 -16 4 -5 1 -9 -5 -9 -6 0 -10 6 -8 13 2 6 -2 12 -7
12 -6 0 -9 -3 -8 -7 5 -14 -15 -9 -20 5 -3 10 -9 10 -26 0 -29 -18 -42 -16
-34 3 5 14 1 16 -20 12 -14 -3 -28 -1 -30 5 -2 6 -27 12 -55 13 -39 3 -54 0
-59 -11 -8 -24 -22 -17 -16 8 5 18 3 20 -8 10 -18 -18 -32 -16 -25 2 5 13 2
14 -15 4 -12 -6 -24 -7 -28 -3 -3 5 -20 9 -38 9 -24 0 -29 -3 -21 -13 9 -10 3
-12 -28 -8 -21 3 -40 10 -43 17 -2 7 -11 3 -23 -12 -11 -13 -17 -19 -15 -14 3
6 -6 16 -20 22 -20 10 -23 10 -13 -2 7 -9 8 -15 1 -20 -13 -8 -51 12 -51 27 0
6 -11 8 -30 5 -16 -4 -32 -2 -35 3 -3 5 -17 7 -30 4 -14 -2 -25 0 -25 6 0 5
-12 10 -27 10 -23 0 -25 -2 -13 -11 17 -12 18 -12 -123 23 -78 19 -88 24 -94
47 -8 33 -7 143 2 201 9 56 8 64 -1 120 -8 44 -8 216 -1 275 2 17 -3 40 -11
53 -13 21 -13 22 7 19 11 -2 24 -6 27 -10 4 -4 16 -7 26 -7 10 0 21 -7 24 -15
4 -8 14 -15 23 -15 9 0 23 -6 30 -12 11 -11 11 -9 1 8 -7 11 -40 31 -74 44
-46 18 -78 41 -129 92 -38 37 -66 68 -62 68 4 0 -4 10 -19 21 -37 29 -43 18
-11 -19 15 -18 21 -32 14 -34 -7 -2 -4 -9 7 -18 16 -13 17 -13 9 0 -5 9 -5 12
1 7 5 -5 8 -12 7 -15 -1 -4 18 -28 43 -53 48 -49 58 -84 35 -126 -8 -16 -8
-24 0 -29 8 -5 6 -10 -5 -16 -9 -5 -14 -14 -10 -19 3 -5 0 -16 -6 -24 -9 -11
-9 -15 -1 -15 6 0 11 -5 11 -11 0 -5 -4 -8 -9 -5 -4 3 -16 -3 -26 -14 -10 -11
-14 -20 -9 -20 5 0 10 -9 10 -20 0 -11 -6 -20 -13 -20 -15 0 -17 -32 -3 -46 7
-7 4 -17 -7 -30 -14 -14 -18 -34 -16 -84 3 -90 -48 -257 -64 -213 -3 10 -8 9
-20 -3 -14 -13 -17 -13 -35 3 -11 10 -29 18 -39 18 -11 0 -24 6 -28 14 -6 8
-19 12 -35 9 -19 -4 -26 -1 -26 11 0 12 -2 13 -8 3 -7 -10 -15 -8 -35 8 -15
12 -27 17 -27 11 0 -6 5 -11 12 -11 6 0 8 -3 5 -7 -4 -3 -15 2 -26 11 -10 9
-28 18 -40 19 -11 1 -21 6 -21 11 0 5 -3 6 -7 3 -10 -11 -33 14 -33 35 0 18
-2 19 -16 7 -9 -7 -18 -9 -22 -3 -4 5 -11 9 -17 9 -15 0 -95 48 -95 57 0 4 -9
8 -20 8 -11 0 -20 5 -20 11 0 6 -7 9 -15 5 -8 -3 -22 2 -31 12 -13 12 -18 14
-22 4 -2 -8 -10 -4 -22 11 -10 13 -61 45 -113 71 -85 43 -93 50 -89 72 4 23
-13 35 -20 13 -2 -5 -16 1 -32 14 -16 14 -25 30 -22 36 4 6 1 11 -8 11 -11 0
-13 -6 -9 -17 7 -17 6 -17 -11 0 -10 9 -21 15 -24 13 -4 -2 -13 2 -19 10 -8 8
-9 15 -3 19 16 10 2 25 -16 18 -10 -3 -26 5 -42 21 -48 47 -95 86 -104 86 -5
0 -7 4 -3 9 3 5 -4 12 -14 16 -13 4 -18 11 -14 22 4 11 2 14 -5 9 -7 -4 -20
-2 -29 3 -10 6 -15 11 -10 11 11 0 -21 60 -33 60 -5 0 -7 11 -4 24 3 18 -1 26
-15 31 -17 5 -44 59 -46 90 -1 6 -7 26 -13 46 -13 38 -24 93 -23 122 0 9 -5
17 -10 17 -5 0 2 22 15 48 17 33 22 53 15 63 -13 20 -11 31 4 23 9 -6 9 -5 1
7 -7 8 -14 33 -16 57 -3 38 -1 43 14 39 19 -5 25 8 9 17 -5 3 -7 16 -4 27 4
14 0 25 -11 31 -9 5 -16 14 -16 20 0 6 -8 20 -17 30 -14 16 -15 23 -5 39 10
16 10 19 -3 19 -23 0 -28 43 -22 169 5 102 10 124 37 179 16 34 30 67 30 72 0
6 4 10 9 10 5 0 12 19 16 42 6 36 48 131 65 148 14 14 102 151 104 162 5 25
29 68 38 68 5 0 7 3 5 8 -3 4 1 13 9 20 8 7 14 10 14 6 0 -13 59 70 60 84 0 6
5 12 10 12 6 0 10 12 10 26 0 21 4 25 20 21 11 -3 20 -1 20 4 0 5 5 9 11 9 7
0 9 -11 6 -30 -5 -24 -3 -30 11 -30 13 0 14 -2 3 -9 -9 -6 -10 -11 -2 -15 6
-4 11 -16 11 -27 0 -10 4 -19 8 -19 15 0 32 -49 32 -90 0 -22 4 -40 9 -40 5 0
15 -25 22 -55 7 -30 16 -55 20 -55 5 0 6 -6 3 -13 -3 -8 2 -20 11 -27 8 -7 15
-21 15 -31 0 -11 8 -27 18 -37 10 -10 16 -24 14 -30 -2 -7 1 -12 7 -12 14 0
43 -58 35 -71 -3 -6 1 -18 9 -27 9 -9 17 -21 19 -27 2 -5 6 -9 11 -8 4 2 7 -2
7 -8 0 -12 31 -81 39 -89 4 -3 21 -35 40 -72 19 -37 46 -79 60 -95 14 -15 26
-33 26 -40 0 -6 22 -41 48 -77 26 -37 47 -69 47 -72 0 -10 107 -132 160 -183
25 -24 88 -79 141 -122 93 -75 111 -102 84 -126 -4 -5 -5 -2 -1 5 4 7 1 12 -8
12 -20 0 -20 -9 1 -32 11 -12 12 -18 3 -18 -14 0 -6 -46 12 -67 18 -22 30 -14
14 9 -22 31 -20 43 8 43 17 0 22 -3 15 -12 -17 -19 8 -25 27 -6 17 17 17 17
12 -3 -4 -17 -2 -21 14 -16 12 3 18 0 16 -9 -2 -10 7 -13 35 -12 31 2 37 -1
37 -18 0 -23 26 -53 39 -45 5 3 11 -4 14 -15 4 -15 11 -19 25 -15 23 8 61 -5
61 -19 0 -5 14 -16 31 -23 26 -10 30 -10 24 0 -6 11 -5 11 8 0 23 -19 59 -23
76 -10 10 9 16 8 23 -3 6 -10 9 -11 9 -1 0 7 4 11 8 8 4 -3 26 -1 47 4 26 6
44 5 52 -2 9 -7 17 -7 28 2 12 10 15 10 16 -1 0 -8 4 -5 9 6 5 11 9 14 9 8 1
-8 16 -12 45 -11 36 2 43 5 34 15 -6 8 -8 16 -4 20 3 3 6 1 6 -6 0 -9 5 -9 23
0 26 15 71 19 58 6 -11 -11 -3 -37 11 -37 6 0 8 7 5 15 -4 8 -2 17 3 20 5 3 7
16 4 30 -4 25 14 45 25 27 4 -7 19 -8 46 -2 69 16 78 12 51 -25 -11 -16 -17
-17 -29 -7 -20 17 -30 -8 -11 -26 8 -7 14 -8 14 -2 0 5 10 10 22 10 21 0 21 0
2 -15 -10 -8 -14 -15 -8 -15 16 0 33 21 27 36 -3 10 0 12 10 8 9 -3 20 2 26
15 14 25 14 32 0 28 -6 -1 -13 3 -16 10 -2 7 7 10 26 9 17 -1 27 2 24 8 -4 6
1 6 13 2 32 -13 55 -16 49 -6 -3 5 0 12 6 16 9 5 10 -2 6 -25 -5 -24 -3 -31 6
-28 6 2 11 13 9 25 -2 12 7 32 19 44 17 18 21 19 16 5 -4 -11 -2 -17 6 -16 34
4 38 -3 9 -18 -24 -12 -30 -18 -20 -24 17 -11 31 -11 24 -1 -5 9 69 10 78 1
11 -11 66 3 66 17 0 14 25 15 48 1 7 -5 12 -4 12 2 0 6 9 11 19 11 11 0 26 7
35 15 8 9 21 14 28 13 7 -2 12 2 11 9 -1 6 4 14 13 17 12 4 12 2 4 -14 -14
-26 -13 -35 3 -21 8 6 17 7 21 3 4 -4 13 0 19 8 7 8 23 16 37 18 57 6 65 8 62
20 -1 7 6 12 15 13 56 3 58 4 55 24 -2 18 -2 18 8 3 6 -10 18 -18 25 -18 8 0
24 -9 36 -21 11 -11 27 -18 35 -15 8 3 14 2 14 -3 0 -5 -9 -11 -20 -14 -13 -3
-21 1 -25 13 -3 10 -15 20 -25 23 -15 4 -20 0 -20 -15 0 -18 2 -19 17 -7 15
13 15 12 5 -8 -16 -29 -15 -41 1 -19 12 16 14 16 26 2 11 -13 9 -17 -14 -26
-14 -5 -32 -10 -39 -10 -8 0 -16 -8 -19 -19 -2 -10 -25 -29 -51 -41 -38 -20
-46 -28 -46 -52 0 -15 5 -28 10 -28 6 0 10 8 10 18 0 15 2 15 10 2 9 -13 12
-12 25 4 8 11 15 14 15 8 0 -22 47 -14 53 10 5 18 8 19 22 8 14 -12 18 -11 26
1 5 8 9 19 9 24 0 6 -5 3 -10 -5 -8 -13 -10 -13 -10 1 0 24 59 19 95 -8 25
-19 28 -24 15 -33 -13 -9 -13 -11 0 -19 17 -11 14 -16 -19 -26 -18 -5 -22 -4
-16 6 4 8 -2 4 -14 -8 -43 -44 -19 -43 66 2 86 46 343 210 353 225 3 4 21 17
40 29 44 26 116 90 238 212 243 241 291 302 389 493 20 39 42 78 49 86 7 8 12
17 12 20 -2 15 21 74 63 162 5 10 4 20 -1 23 -6 3 -10 11 -10 16 0 6 5 7 10 4
6 -3 10 1 10 10 0 9 5 13 11 9 8 -4 9 0 4 15 -3 11 -3 21 2 21 5 0 10 12 11
28 1 15 7 29 12 30 6 2 10 11 10 21 0 9 4 21 9 27 14 14 31 84 20 84 -6 0 -6
7 0 18 25 46 51 110 51 125 0 9 5 17 11 17 5 0 9 10 7 22 -2 14 2 23 10 23 8
0 20 17 27 37 7 21 9 35 4 32 -12 -7 -11 3 1 27 7 13 7 19 0 19 -5 0 -10 7
-10 15 0 8 -5 15 -12 15 -6 0 1 10 16 23 18 16 36 22 55 19 32 -4 81 34 73 57
-3 10 0 12 11 8 9 -3 18 1 21 10 4 8 12 13 20 10 8 -3 22 3 32 14 9 10 23 19
29 19 7 0 18 7 25 15 7 8 19 15 28 15 8 0 24 10 35 23 16 17 19 18 14 4 -6
-16 -2 -17 23 -13 33 5 38 -1 14 -18 -13 -10 -13 -12 5 -12 15 0 21 7 21 24 0
13 4 20 10 17 6 -3 11 0 11 7 1 7 2 18 4 23 1 6 3 16 3 23 2 14 42 17 42 2 0
-5 -4 -10 -9 -10 -15 0 -9 -35 8 -50 13 -12 14 -12 9 2 -7 17 16 33 33 22 5
-3 9 -1 9 5 0 16 -21 24 -33 12 -23 -23 -28 -10 -7 19 22 31 44 41 34 15 -4
-8 -3 -15 0 -15 13 0 24 45 12 53 -7 6 -4 7 7 3 9 -3 17 0 17 6 0 6 3 8 6 5 4
-4 1 -13 -6 -22 -10 -12 -10 -15 3 -15 9 0 17 10 19 23 2 14 11 23 27 25 17 3
20 6 11 12 -8 5 4 7 29 6 23 -1 46 -7 49 -12z m-1894 -9 c3 -8 1 -15 -4 -15
-6 0 -10 7 -10 15 0 8 2 15 4 15 2 0 6 -7 10 -15z m-24 1 c0 -2 -7 -7 -16 -10
-8 -3 -12 -2 -9 4 6 10 25 14 25 6z m20 -82 c0 -8 -5 -12 -10 -9 -6 4 -8 11
-5 16 9 14 15 11 15 -7z m-53 -16 c-3 -8 -6 -5 -6 6 -1 11 2 17 5 13 3 -3 4
-12 1 -19z m1637 -13 c3 -8 1 -15 -4 -15 -6 0 -10 7 -10 15 0 8 2 15 4 15 2 0
6 -7 10 -15z m-1669 -5 c3 -5 1 -10 -4 -10 -6 0 -11 5 -11 10 0 6 2 10 4 10 3
0 8 -4 11 -10z m-25 -44 c0 -3 -4 -8 -10 -11 -5 -3 -10 -1 -10 4 0 6 5 11 10
11 6 0 10 -2 10 -4z m64 -69 c7 -6 6 -7 -4 -4 -8 2 -16 12 -17 23 -2 13 -1 15
4 4 3 -8 11 -19 17 -23z m-64 8 c7 -9 8 -15 2 -15 -5 0 -12 7 -16 15 -3 8 -4
15 -2 15 2 0 9 -7 16 -15z m-2805 -54 c-3 -11 -1 -22 5 -26 5 -3 10 -10 10
-15 0 -6 -8 -3 -19 6 -18 16 -18 54 1 54 5 0 7 -9 3 -19z m2750 -1 c3 -5 -1
-10 -9 -10 -9 0 -16 5 -16 10 0 6 4 10 9 10 6 0 13 -4 16 -10z m9 -105 c-4 -8
-10 -13 -15 -10 -4 3 -6 12 -3 20 4 8 10 13 15 10 4 -3 6 -12 3 -20z m-8 -152
c-10 -10 -19 5 -10 18 6 11 8 11 12 0 2 -7 1 -15 -2 -18z m-56 -253 c0 -5 -4
-10 -10 -10 -5 0 -10 5 -10 10 0 6 5 10 10 10 6 0 10 -4 10 -10z m-16 -16 c9
-3 16 -14 16 -23 0 -10 -3 -12 -8 -5 -4 6 -16 16 -27 22 -21 12 -8 16 19 6z
m-2524 -48 c0 -2 -7 -6 -15 -10 -8 -3 -15 -1 -15 4 0 6 7 10 15 10 8 0 15 -2
15 -4z m70 -180 c0 -2 -7 -7 -16 -10 -8 -3 -12 -2 -9 4 6 10 25 14 25 6z
m2305 -16 c-4 -6 -3 -16 2 -23 4 -7 8 -19 7 -27 -1 -8 -2 -23 -3 -32 0 -10 -5
-18 -11 -18 -15 0 -12 30 3 30 6 0 4 5 -6 11 -15 9 -16 13 -5 27 11 14 10 15
-6 8 -19 -7 -19 -6 -1 14 19 21 30 27 20 10z m52 -45 c0 -8 -4 -12 -9 -9 -4 3
-8 9 -8 15 0 5 4 9 8 9 5 0 9 -7 9 -15z m1113 -5 c0 -5 -2 -10 -4 -10 -3 0 -8
5 -11 10 -3 6 -1 10 4 10 6 0 11 -4 11 -10z m-1190 -69 c0 -6 -5 -13 -11 -16
-6 -4 -8 -13 -5 -21 3 -8 0 -11 -10 -7 -18 7 -18 22 1 29 8 4 12 10 9 15 -3 5
0 9 5 9 6 0 11 -4 11 -9z m27 -27 c-3 -3 -12 -4 -19 -1 -8 3 -5 6 6 6 11 1 17
-2 13 -5z m-101 -63 c0 -11 -5 -17 -13 -14 -17 6 -17 20 0 26 6 3 12 6 12 6 1
1 1 -7 1 -18z m-168 -58 c-6 -7 -14 -10 -19 -7 -15 9 -10 20 10 20 15 0 17 -3
9 -13z m36 -34 c-6 -11 -44 -12 -44 -1 0 4 11 8 25 8 14 1 22 -2 19 -7z m-27
-41 c2 -21 1 -21 -8 -5 -8 14 -14 16 -25 6 -8 -6 -14 -7 -14 -2 0 31 45 31 47
1z m33 18 c0 -3 -4 -8 -10 -11 -5 -3 -10 -1 -10 4 0 6 5 11 10 11 6 0 10 -2
10 -4z m-136 -17 c-2 -4 2 -12 11 -16 12 -7 11 -11 -8 -22 -20 -13 -21 -13 -8
2 11 14 11 18 -3 23 -20 8 -21 21 -1 21 8 0 12 -4 9 -8z m-20 -34 c-7 -16 -24
-21 -24 -6 0 8 7 13 27 20 1 1 0 -6 -3 -14z m-1614 -35 c0 -5 -2 -10 -4 -10
-3 0 -8 5 -11 10 -3 6 -1 10 4 10 6 0 11 -4 11 -10z m1640 -15 c-7 -8 -9 -18
-6 -23 3 -5 -2 -9 -10 -9 -8 0 -13 6 -10 14 4 11 1 11 -14 3 -23 -12 -26 -5
-7 14 7 7 18 11 25 8 6 -2 12 1 12 8 0 6 5 8 10 5 8 -5 7 -11 0 -20z m30 -19
c0 -3 -4 -8 -10 -11 -5 -3 -10 -1 -10 4 0 6 5 11 10 11 6 0 10 -2 10 -4z
m-515 -186 c3 -6 2 -10 -4 -10 -5 0 -12 6 -14 13 -4 9 -7 9 -14 0 -5 -7 -19
-10 -31 -6 -31 8 -27 21 4 15 20 -4 25 -2 19 8 -6 9 -3 10 13 1 12 -6 24 -16
27 -21z m-415 -51 c0 -5 -4 -9 -10 -9 -5 0 -10 7 -10 16 0 8 5 12 10 9 6 -3
10 -10 10 -16z m-105 -27 c-3 -3 -11 0 -18 7 -9 10 -8 11 6 5 10 -3 15 -9 12
-12z m-170 -52 c-3 -5 -11 -10 -16 -10 -6 0 -7 5 -4 10 3 6 11 10 16 10 6 0 7
-4 4 -10z m1484 -89 c3 -1 -5 -11 -17 -24 -12 -13 -19 -26 -16 -29 10 -10 -7
-49 -18 -42 -6 4 -6 10 0 16 5 5 7 27 5 49 -5 37 -4 39 18 35 13 -3 26 -5 28
-5z m167 -3 c3 -4 -2 -17 -11 -30 -10 -13 -15 -16 -12 -6 3 9 0 19 -9 22 -8 3
-14 9 -14 14 0 10 36 9 46 0z m-216 -64 c0 -3 -10 2 -22 10 -23 15 -26 16 -53
16 -8 0 -15 4 -15 9 0 5 14 8 30 6 19 -3 30 0 30 8 0 7 7 -1 15 -17 8 -15 15
-30 15 -32z m130 52 c0 -2 3 -11 6 -20 3 -9 1 -16 -5 -16 -6 0 -11 7 -11 15 0
8 -5 15 -11 15 -6 0 -9 -9 -6 -20 6 -22 -8 -28 -16 -6 -6 16 11 36 30 36 7 0
13 -2 13 -4z m-243 -22 c2 -5 -5 -14 -15 -21 -16 -9 -18 -8 -16 11 1 11 3 23
3 24 2 7 25 -5 28 -14z m96 -49 c4 -8 2 -17 -3 -20 -6 -4 -10 3 -10 14 0 25 6
27 13 6z m-225 -15 c7 -11 9 -20 4 -20 -4 0 -13 9 -20 20 -7 11 -9 20 -4 20 4
0 13 -9 20 -20z m-41 -10 c2 -25 -12 -34 -34 -21 -17 10 -17 10 0 11 10 0 16
4 13 9 -4 5 0 12 6 14 7 3 13 6 13 6 1 1 1 -8 2 -19z m593 10 c0 -5 -2 -10 -4
-10 -3 0 -8 5 -11 10 -3 6 -1 10 4 10 6 0 11 -4 11 -10z m-24 -56 c-3 -9 -6
-21 -7 -27 0 -7 -4 -3 -8 8 -9 22 -5 35 11 35 5 0 7 -7 4 -16z m-36 -12 c0 -5
-7 -9 -15 -9 -8 0 -12 4 -9 9 3 4 9 8 15 8 5 0 9 -4 9 -8z m-50 -22 c0 -5 -5
-10 -11 -10 -5 0 -7 5 -4 10 3 6 8 10 11 10 2 0 4 -4 4 -10z m-760 -10 c0 -5
-4 -10 -10 -10 -5 0 -10 5 -10 10 0 6 5 10 10 10 6 0 10 -4 10 -10z m940 -15
c0 -8 -2 -15 -4 -15 -2 0 -6 7 -10 15 -3 8 -1 15 4 15 6 0 10 -7 10 -15z
m-170 1 c0 -3 -4 -8 -10 -11 -5 -3 -10 -1 -10 4 0 6 5 11 10 11 6 0 10 -2 10
-4z m142 -28 c-7 -7 -12 -8 -12 -2 0 14 12 26 19 19 2 -3 -1 -11 -7 -17z
m1373 2 c-3 -5 -12 -10 -18 -10 -7 0 -6 4 3 10 19 12 23 12 15 0z m-2855 -31
c0 -6 -4 -7 -10 -4 -5 3 -10 11 -10 16 0 6 5 7 10 4 6 -3 10 -11 10 -16z m180
11 c0 -5 -4 -10 -9 -10 -6 0 -13 5 -16 10 -3 6 1 10 9 10 9 0 16 -4 16 -10z
m1330 -4 c0 -2 -7 -9 -15 -16 -12 -10 -15 -10 -15 4 0 9 7 16 15 16 8 0 15 -2
15 -4z m-3199 -68 c1 -7 1 -16 1 -20 -1 -3 5 -12 13 -18 8 -7 15 -19 15 -26 0
-8 5 -14 11 -14 6 0 17 -7 26 -15 8 -8 19 -13 24 -10 5 4 6 -1 3 -9 -4 -10 -1
-16 8 -16 7 0 38 -24 69 -52 84 -82 141 -128 150 -122 5 3 17 -4 29 -16 11
-11 38 -28 60 -37 22 -10 40 -23 40 -29 0 -7 8 -15 18 -18 32 -13 62 -31 62
-38 0 -5 6 -8 14 -8 8 0 16 -7 20 -15 3 -8 12 -15 20 -15 8 0 22 -10 30 -22 9
-12 16 -19 16 -14 0 5 6 4 13 -2 24 -20 147 -79 147 -71 0 15 15 10 40 -13 13
-12 31 -23 41 -23 10 -1 36 -14 59 -29 22 -15 45 -24 50 -21 5 3 11 1 15 -5 3
-5 13 -10 21 -10 8 0 12 5 9 10 -3 6 -2 10 3 10 6 0 13 -7 16 -16 4 -10 14
-14 26 -11 11 3 18 0 17 -7 -1 -7 13 -11 36 -11 20 0 37 -3 37 -7 0 -13 74
-40 78 -28 2 5 13 10 24 10 11 0 18 -5 15 -12 -2 -7 5 -24 17 -37 11 -13 15
-21 9 -17 -9 5 -13 -1 -14 -21 0 -15 -2 -37 -4 -48 -10 -52 -12 -121 -4 -137
6 -11 5 -19 -2 -23 -6 -4 -8 -18 -5 -31 4 -13 3 -24 -2 -24 -5 0 -8 -10 -7
-22 1 -13 -2 -31 -7 -42 -7 -13 -7 -16 1 -12 12 8 15 -16 4 -28 -4 -4 -8 -24
-10 -44 -1 -20 -4 -66 -8 -102 -3 -36 -7 -103 -10 -148 -3 -46 -8 -88 -11 -93
-3 -6 -15 -7 -27 -3 -12 4 -37 8 -55 10 -18 1 -52 12 -77 24 -24 12 -58 23
-75 25 -17 2 -43 11 -58 19 -15 8 -42 21 -59 30 -18 8 -33 18 -33 21 0 3 9 1
21 -5 11 -7 23 -9 26 -6 8 8 -7 27 -17 21 -5 -3 -13 3 -19 12 -7 13 -10 14
-11 4 0 -12 -3 -12 -17 1 -27 22 -71 38 -88 32 -8 -4 -15 -2 -15 3 0 6 -18 17
-40 26 -41 16 -56 39 -20 30 11 -3 20 0 20 6 0 6 -13 11 -29 11 -17 0 -33 5
-36 11 -4 6 -14 8 -22 5 -8 -3 -11 -1 -8 4 3 6 1 10 -4 10 -6 0 -10 3 -10 8 1
4 1 16 0 27 -1 15 -3 17 -10 6 -7 -11 -14 -10 -37 5 -28 19 -71 53 -104 85 -9
8 -22 13 -28 11 -7 -2 -10 2 -6 11 3 10 -5 19 -25 28 -16 7 -28 16 -25 20 4 8
-35 25 -48 21 -5 -1 -8 3 -8 9 0 6 8 8 18 5 12 -4 11 -1 -5 13 -13 11 -23 23
-23 28 0 18 -46 33 -59 20 -10 -9 -11 -5 -5 17 4 19 3 27 -3 23 -6 -4 -14 0
-17 9 -3 8 -11 12 -16 9 -6 -4 -10 -3 -9 2 4 15 -13 43 -22 38 -4 -3 -16 7
-26 22 -10 15 -23 34 -30 41 -7 7 -13 18 -13 23 0 5 -7 9 -15 9 -9 0 -15 10
-16 23 0 12 -2 46 -4 74 -2 29 1 55 5 58 5 3 6 13 3 22 -4 11 -3 14 5 9 7 -4
12 -3 12 2 0 6 -6 12 -14 15 -30 12 -26 92 4 84 4 -1 7 2 7 8 -1 5 -9 10 -17
10 -10 0 -15 11 -15 35 0 28 4 34 18 32 24 -4 22 13 -18 106 -24 58 -36 102
-37 143 -2 32 -6 59 -9 59 -4 0 -6 15 -6 33 0 17 -3 42 -7 54 -4 13 -4 27 -1
33 9 14 35 12 36 -2z m4429 -22 c0 -8 -4 -18 -10 -21 -5 -3 -10 3 -10 14 0 12
5 21 10 21 6 0 10 -6 10 -14z m-78 -22 c-5 -9 -7 -25 -5 -34 5 -18 -10 -33
-37 -36 -8 -1 -22 -5 -31 -8 -24 -10 -35 25 -13 41 21 15 44 17 44 3 0 -5 5
-10 10 -10 6 0 10 8 10 18 0 10 5 23 12 30 17 17 21 15 10 -4z m88 -28 c0 -3
-4 -8 -10 -11 -5 -3 -10 -1 -10 4 0 6 5 11 10 11 6 0 10 -2 10 -4z m14 -40
c-5 -13 -34 -31 -34 -21 0 5 30 35 35 35 3 0 2 -6 -1 -14z m-249 -36 c-3 -5 2
-15 10 -23 8 -9 15 -20 15 -26 0 -18 -19 -12 -32 9 -12 19 -48 28 -48 12 0 -4
-9 -13 -21 -20 -17 -11 -23 -11 -37 0 -13 11 -14 11 -8 0 5 -8 1 -19 -10 -28
-17 -14 -16 -14 16 -8 19 3 38 11 41 16 4 6 13 1 21 -11 8 -11 18 -18 23 -13
4 4 0 -5 -9 -19 -12 -19 -23 -25 -36 -22 -14 4 -20 0 -20 -11 0 -9 -4 -16 -10
-16 -5 0 -10 -5 -10 -11 0 -6 9 -9 19 -6 14 3 18 1 14 -9 -3 -8 -14 -14 -25
-14 -17 0 -18 -2 -4 -15 8 -8 19 -15 25 -15 6 0 11 -4 11 -8 0 -4 -9 -8 -19
-8 -11 0 -17 4 -15 8 3 4 -1 8 -9 8 -8 0 -20 -13 -27 -30 -14 -33 -37 -56 -47
-46 -4 4 5 18 20 32 29 27 28 47 -1 38 -14 -5 -14 -4 -3 4 13 9 13 17 1 54 -7
24 -18 48 -23 55 -14 20 15 68 41 67 12 -1 22 3 22 8 0 10 31 45 37 41 2 -2
19 -3 38 -3 24 0 35 5 35 15 0 9 6 12 15 9 8 -4 13 -10 10 -14z m158 11 c14
-2 7 -39 -10 -52 -15 -11 -16 -11 -5 1 18 21 15 34 -5 19 -16 -13 -17 -12 -4
4 17 22 7 34 -14 17 -8 -7 -15 -25 -15 -41 0 -16 -4 -29 -9 -29 -14 0 -23 18
-12 25 5 3 8 15 6 27 -3 11 -3 24 0 27 3 6 40 7 68 2z m37 -45 c0 -2 -7 -9
-15 -16 -13 -11 -14 -10 -9 4 5 14 24 23 24 12z m-142 -46 c-7 -10 -14 -18
-15 -16 -6 6 9 36 18 36 5 0 4 -9 -3 -20z m-43 -28 c2 -11 -2 -22 -9 -25 -10
-4 -13 21 -7 52 2 10 12 -8 16 -27z m95 18 c0 -5 -5 -10 -11 -10 -5 0 -7 5 -4
10 3 6 8 10 11 10 2 0 4 -4 4 -10z m-50 -58 c0 -4 -9 -13 -19 -19 -16 -10 -20
-9 -25 4 -4 11 -2 14 9 9 9 -3 15 0 15 10 0 8 5 12 10 9 6 -3 10 -9 10 -13z
m-90 -6 c0 -8 -7 -16 -15 -20 -13 -4 -14 -2 -5 14 13 23 20 26 20 6z m15 -40
c-16 -7 -32 -11 -35 -9 -8 7 24 23 45 22 15 0 13 -3 -10 -13z m-94 -79 c-1
-12 -15 -9 -19 4 -3 6 1 10 8 8 6 -3 11 -8 11 -12z m79 3 c0 -5 -5 -10 -11
-10 -5 0 -7 5 -4 10 3 6 8 10 11 10 2 0 4 -4 4 -10z m-30 -21 c0 -6 -4 -7 -10
-4 -5 3 -10 11 -10 16 0 6 5 7 10 4 6 -3 10 -11 10 -16z m-60 -41 c0 -4 -6 -8
-14 -8 -7 0 -16 -9 -19 -21 -4 -14 -10 -18 -18 -13 -10 6 -10 9 -1 12 7 2 10
8 6 13 -3 5 0 9 6 9 6 0 9 4 6 8 -2 4 4 8 15 8 10 0 19 -4 19 -8z m-355 -178
c-3 -5 -11 -10 -16 -10 -6 0 -7 5 -4 10 3 6 11 10 16 10 6 0 7 -4 4 -10z m355
-50 c0 -5 -5 -10 -11 -10 -5 0 -7 5 -4 10 3 6 8 10 11 10 2 0 4 -4 4 -10z
m-2860 -25 c10 -11 6 -12 -19 -2 -17 6 -31 14 -31 18 0 11 38 -2 50 -16z
m2877 -67 c-3 -7 -5 -2 -5 12 0 14 2 19 5 13 2 -7 2 -19 0 -25z m46 -10 c-2
-5 -10 -8 -16 -8 -7 0 -6 4 3 10 9 6 11 10 3 10 -7 0 -10 7 -6 17 6 15 7 14
13 -3 4 -10 6 -22 3 -26z m-1124 -32 c-9 -8 -10 -5 -5 14 3 14 6 32 7 40 1 8
4 2 6 -14 3 -16 -1 -34 -8 -40z m291 48 c0 -2 -7 -4 -15 -4 -8 0 -15 4 -15 10
0 5 7 7 15 4 8 -4 15 -8 15 -10z m650 12 c0 -3 -4 -8 -10 -11 -5 -3 -10 -1
-10 4 0 6 5 11 10 11 6 0 10 -2 10 -4z m73 -10 c3 -8 0 -19 -7 -25 -10 -9 -12
-6 -8 14 5 29 8 31 15 11z m-903 -16 c0 -5 -5 -10 -11 -10 -5 0 -7 5 -4 10 3
6 8 10 11 10 2 0 4 -4 4 -10z m542 -2 c17 0 31 -5 35 -13 4 -11 10 -12 24 -4
12 6 19 6 19 0 0 -5 -12 -14 -27 -20 -21 -8 -22 -10 -5 -7 12 2 22 0 22 -6 0
-5 4 -6 10 -3 6 3 7 -1 4 -9 -3 -9 -11 -14 -16 -13 -6 1 -13 -4 -15 -11 -3 -7
1 -11 8 -10 7 2 15 -5 17 -15 3 -16 0 -18 -20 -12 -22 7 -22 7 -7 -11 9 -11
19 -26 23 -34 4 -8 0 -6 -8 4 -16 20 -16 20 -35 -1 -11 -11 -17 -24 -13 -28 4
-3 -1 -11 -11 -16 -9 -6 -17 -18 -17 -28 0 -23 -30 -51 -31 -30 0 8 -4 5 -8
-6 -5 -11 -5 -27 -1 -35 16 -32 21 -72 9 -64 -7 4 -9 3 -5 -4 4 -7 17 -8 38
-1 39 11 50 3 14 -10 -14 -6 -26 -16 -26 -22 0 -7 -10 -1 -23 12 -12 13 -30
25 -40 25 -21 2 -21 0 -1 -31 9 -14 12 -25 7 -25 -6 0 -15 -10 -20 -22 -10
-22 -10 -22 -10 5 0 15 3 27 7 27 5 0 3 11 -3 25 -12 26 -28 28 -35 5 -3 -7 0
-10 6 -6 6 4 10 -7 9 -28 0 -19 -5 -33 -9 -30 -4 3 -8 1 -8 -4 0 -12 -73 -10
-81 2 -4 4 -16 3 -28 -3 -17 -10 -22 -9 -27 3 -5 14 -8 14 -21 0 -12 -11 -18
-12 -29 -3 -11 9 -14 9 -14 0 0 -8 -14 -10 -40 -7 -39 5 -57 -8 -22 -17 14 -4
-25 -11 -48 -9 -6 1 -8 -12 -12 -65 -3 -39 -24 -44 -30 -8 -3 13 -1 22 3 19 5
-3 9 -1 9 5 0 5 -8 15 -17 20 -10 6 -13 11 -7 11 5 0 15 -5 21 -11 8 -8 13 -8
18 0 6 11 2 13 -35 24 -8 2 -29 -2 -46 -9 -17 -7 -40 -11 -51 -8 -12 3 -24 0
-28 -7 -5 -8 -4 -10 3 -5 7 4 12 2 12 -4 0 -6 -11 -16 -25 -22 -26 -12 -33
-32 -14 -44 6 -3 16 -1 22 5 8 8 6 11 -8 11 -18 1 -19 1 -3 11 12 7 24 6 37
-1 24 -12 42 -13 22 -1 -15 10 -8 41 10 41 6 0 8 -7 5 -16 -4 -10 1 -18 14
-21 17 -5 37 -37 32 -55 -1 -4 6 -4 16 -1 15 6 15 4 -2 -15 -11 -12 -25 -22
-33 -22 -7 0 -13 -4 -13 -10 0 -15 3 -13 50 24 24 19 48 33 54 32 6 -2 8 -1 5
1 -4 2 -2 19 4 38 5 19 14 32 19 29 4 -3 8 0 8 5 0 6 5 11 11 11 5 0 7 -5 3
-12 -5 -8 -2 -9 9 -5 10 3 17 2 17 -4 0 -6 10 -8 23 -5 l22 6 -23 -12 c-25
-12 -36 -43 -29 -79 3 -17 5 -13 6 12 1 23 6 36 15 36 8 0 12 -6 8 -15 -4 -11
-2 -13 9 -6 23 14 39 13 39 -3 0 -8 9 -17 20 -20 21 -6 28 -23 8 -23 -6 0 -9
-3 -5 -6 7 -8 36 8 36 21 0 5 4 11 10 13 6 2 8 -3 5 -12 -4 -11 -1 -16 10 -16
9 0 16 4 16 9 0 5 12 12 28 16 15 3 38 16 51 28 23 21 24 21 16 2 -12 -30 -9
-64 9 -84 9 -10 13 -22 9 -26 -5 -5 0 -3 10 4 22 17 22 33 0 29 -13 -2 -18 4
-19 22 -2 34 5 50 22 50 11 0 12 -4 4 -19 -17 -32 -11 -38 11 -11 15 17 19 19
15 7 -3 -11 -2 -16 4 -12 6 3 10 -1 10 -10 0 -12 6 -15 20 -10 11 3 20 2 20
-3 0 -16 33 -24 41 -10 5 8 7 5 6 -10 -1 -16 -6 -22 -17 -19 -8 3 -22 6 -30 8
-8 2 -18 8 -22 14 -4 5 -10 2 -14 -8 -3 -9 -14 -17 -23 -17 -14 0 -14 -2 -1
-10 21 -13 19 -32 -3 -52 -19 -17 -18 -17 7 -24 31 -7 35 -24 6 -24 -11 0 -20
-5 -20 -12 0 -6 -3 -9 -6 -6 -3 4 -21 0 -39 -8 -31 -13 -35 -12 -44 4 -9 15
-10 15 -11 -4 0 -15 -10 -24 -39 -32 -53 -16 -61 -15 -89 11 l-25 22 12 -22
c10 -19 9 -23 -3 -23 -8 0 -17 6 -20 13 -3 6 -4 4 -3 -7 1 -11 -7 -22 -22 -27
-20 -8 -22 -7 -12 5 8 9 8 16 2 20 -5 4 -13 2 -16 -4 -5 -8 -11 -7 -21 1 -11
9 -14 8 -14 -4 0 -19 -25 -30 -72 -32 -23 -1 -35 3 -31 9 4 6 -3 3 -14 -7 -21
-18 -22 -18 -33 4 -7 12 -15 18 -19 13 -11 -16 -31 -14 -31 2 0 13 -3 14 -15
4 -8 -6 -20 -8 -27 -4 -10 5 -11 4 0 -7 6 -7 12 -18 12 -24 -1 -5 -10 1 -20
14 -24 28 -27 15 -4 -17 14 -20 14 -22 0 -22 -9 0 -16 5 -16 11 0 7 -11 4 -27
-7 -29 -18 -49 -22 -185 -31 -69 -4 -79 -3 -85 13 -8 20 17 121 45 185 19 44
92 242 97 263 1 6 5 18 8 26 3 8 17 47 30 85 31 88 109 277 120 290 4 6 14 18
21 29 10 16 25 19 92 18 44 0 85 5 93 12 11 9 13 7 7 -12 -4 -13 -3 -22 3 -22
5 0 13 9 16 20 4 11 10 18 15 15 5 -3 6 -13 3 -23 -4 -9 6 -3 21 13 15 17 25
24 21 18 -11 -22 12 -14 29 10 8 12 13 15 10 6 -3 -10 -1 -20 5 -24 6 -3 11
-1 11 5 0 6 5 8 10 5 6 -4 17 -1 25 5 8 7 15 9 15 5 0 -4 6 -3 13 3 8 7 18 7
27 1 13 -7 13 -10 1 -18 -8 -5 -9 -11 -3 -15 5 -3 22 6 36 19 15 14 33 22 39
19 7 -4 9 -4 5 1 -12 12 35 34 49 23 20 -16 65 -17 59 -3 -6 16 4 26 17 18 5
-3 23 -6 39 -5z m168 -3 c0 -9 7 -18 15 -21 16 -7 21 -44 5 -44 -5 0 -7 6 -4
14 3 8 1 17 -5 21 -6 3 -11 -2 -11 -12 0 -14 -5 -11 -19 11 -11 17 -18 33 -15
38 9 14 34 9 34 -7z m70 0 c5 3 10 0 10 -9 0 -12 -5 -12 -29 -3 -17 6 -27 15
-24 19 2 5 11 4 18 -2 8 -7 19 -9 25 -5z m-2367 -19 c3 3 16 -2 30 -11 17 -11
27 -13 32 -6 3 6 11 11 16 11 6 0 7 -5 3 -11 -4 -8 0 -8 15 0 18 10 21 9 21
-9 0 -11 5 -20 11 -20 6 0 9 9 6 19 -3 13 1 21 13 24 22 6 45 -7 36 -21 -10
-16 14 -26 27 -12 9 10 9 11 -2 5 -10 -6 -12 -4 -6 5 6 10 11 9 21 -4 8 -11
14 -13 19 -7 10 17 35 13 35 -5 0 -14 1 -14 16 0 18 18 40 21 49 6 4 -6 11 -8
16 -5 5 4 9 1 9 -4 0 -6 12 -11 28 -11 26 1 26 1 8 15 -11 8 -15 15 -9 15 7 0
15 -4 18 -10 3 -5 15 -10 26 -10 12 0 17 4 13 11 -4 7 -1 10 7 7 8 -3 14 -12
13 -20 -1 -9 7 -14 20 -13 12 2 20 8 18 14 -3 13 24 15 33 1 3 -5 12 -7 20 -3
10 3 15 -1 15 -13 0 -16 2 -16 10 -4 8 12 11 12 27 -2 18 -16 19 -16 31 3 14
23 35 16 28 -9 -3 -10 -1 -24 4 -32 6 -10 10 -11 10 -2 0 8 20 12 64 12 36 0
67 4 70 9 3 5 26 5 52 0 32 -6 51 -5 60 2 7 6 18 7 25 3 18 -11 143 -12 150
-2 4 6 50 11 102 12 l97 3 -7 -26 c-3 -14 -14 -37 -25 -50 -10 -13 -18 -29
-18 -35 0 -6 -7 -24 -15 -40 -9 -16 -14 -35 -11 -42 3 -7 -12 -39 -33 -71 -43
-66 -59 -95 -131 -248 -29 -60 -82 -171 -119 -245 -36 -74 -65 -138 -63 -142
1 -5 -17 -8 -41 -9 -23 -1 -62 -2 -87 -2 -66 -2 -252 12 -360 27 -52 7 -113
14 -135 15 -21 1 -44 6 -50 10 -5 5 -23 9 -38 9 -45 -1 -182 42 -212 66 -43
35 -50 133 -31 476 4 58 8 149 11 204 4 96 13 163 22 179 3 4 10 3 17 -2 7 -6
15 -8 19 -5z m1517 -6 c-8 -5 -17 -7 -19 -4 -3 3 1 9 9 14 8 5 17 7 19 4 3 -3
-1 -9 -9 -14z m730 0 c8 -5 11 -12 8 -16 -10 -9 -38 3 -38 16 0 12 10 13 30 0z
m-940 -14 c0 -3 -4 -8 -10 -11 -5 -3 -10 -1 -10 4 0 6 5 11 10 11 6 0 10 -2
10 -4z m967 -18 c-3 -8 -6 -5 -6 6 -1 11 2 17 5 13 3 -3 4 -12 1 -19z m-1107
8 c0 -3 -4 -8 -10 -11 -5 -3 -10 -1 -10 4 0 6 5 11 10 11 6 0 10 -2 10 -4z
m-150 -26 c0 -5 -4 -10 -10 -10 -5 0 -10 5 -10 10 0 6 5 10 10 10 6 0 10 -4
10 -10z m-1192 -49 c-5 -14 -9 -27 -9 -28 4 -13 -1 -20 -13 -20 -16 0 -15 27
3 72 9 22 14 26 21 15 5 -7 4 -24 -2 -39z m2424 10 c8 12 9 12 6 0 -6 -22 -28
-25 -27 -4 0 12 2 14 6 4 5 -11 7 -11 15 0z m48 -44 c0 -3 -8 -3 -18 0 -10 2
-24 -3 -31 -11 -8 -9 -19 -16 -25 -16 -6 0 2 13 19 28 24 23 32 26 42 16 7 -7
13 -15 13 -17z m70 19 c-7 -7 -13 -7 -20 0 -6 6 -3 10 10 10 13 0 16 -4 10
-10z m-194 -48 c-1 -13 -5 -24 -9 -25 -8 -4 -10 6 -3 30 6 25 15 21 12 -5z
m435 9 c-7 -7 -14 -8 -21 -1 -6 6 -2 10 12 11 16 2 18 -1 9 -10z m-411 -17 c0
-5 -4 -10 -10 -10 -5 0 -10 5 -10 10 0 6 5 10 10 10 6 0 10 -4 10 -10z m-890
-10 c0 -5 -5 -10 -11 -10 -5 0 -7 5 -4 10 3 6 8 10 11 10 2 0 4 -4 4 -10z
m1190 -40 c0 -4 -7 -11 -16 -14 -8 -3 -12 -2 -9 4 3 6 0 10 -7 10 -10 0 -9 3
2 9 15 10 30 6 30 -9z m-2690 -31 c-5 -19 -12 -61 -15 -94 -3 -33 -7 -71 -10
-85 -5 -28 -11 -81 -21 -190 -3 -41 -8 -85 -10 -98 -2 -12 -5 -33 -7 -47 -3
-17 0 -25 10 -25 11 0 9 -7 -7 -27 -14 -18 -17 -29 -10 -31 7 -3 16 1 20 8 4
7 10 8 13 3 3 -5 -3 -16 -14 -23 -22 -17 -26 -32 -5 -24 10 4 14 -2 12 -25 -1
-17 3 -32 8 -35 6 -2 2 -11 -9 -20 -19 -15 -19 -17 -2 -30 9 -7 17 -17 17 -22
0 -4 -5 -3 -12 4 -9 9 -14 7 -24 -6 -11 -14 -15 -15 -23 -3 -13 20 3 67 22 63
23 -4 22 17 0 25 -10 4 -21 11 -25 17 -4 6 -8 -4 -8 -23 0 -19 -3 -32 -6 -28
-11 11 -5 98 7 113 6 8 7 14 2 14 -9 0 -9 23 1 100 9 66 11 73 21 90 12 19 14
28 21 130 10 147 23 238 39 276 19 45 28 41 15 -7z m2597 24 c-4 -3 -3 -11 3
-17 5 -7 5 -17 0 -26 -8 -12 -10 -11 -10 6 0 11 -5 25 -12 32 -9 9 -8 12 7 12
10 0 15 -3 12 -7z m-1076 -16 c-1 -12 -15 -9 -19 4 -3 6 1 10 8 8 6 -3 11 -8
11 -12z m1042 0 c4 -10 -2 -13 -20 -9 -18 3 -21 7 -11 13 18 12 25 11 31 -4z
m-237 -17 c0 -10 -6 -17 -13 -16 -17 3 -26 13 -19 24 9 15 32 9 32 -8z m74 9
c0 -15 -18 -19 -23 -6 -3 8 1 14 9 14 8 0 14 -4 14 -8z m54 -1 c-5 -8 0 -9 14
-6 12 4 20 2 16 -3 -7 -12 -64 -12 -64 0 0 5 6 12 13 14 21 9 28 7 21 -5z
m-84 -18 c0 -5 -4 -10 -9 -10 -6 0 -13 5 -16 10 -3 6 1 10 9 10 9 0 16 -4 16
-10z m70 -22 c0 -4 -4 -10 -10 -13 -16 -10 -12 -28 4 -22 10 4 13 1 10 -7 -3
-8 -14 -12 -25 -9 -15 4 -19 0 -19 -18 0 -26 -9 -21 -15 10 -2 13 1 21 11 21
8 0 14 9 14 21 0 15 -5 19 -15 15 -8 -3 -15 -1 -15 4 0 5 13 8 30 7 16 -1 30
-5 30 -9z m-945 -35 c-8 -17 -8 -17 -12 0 -3 9 -10 17 -16 17 -7 0 -6 4 3 10
20 12 35 -4 25 -27z m831 19 c0 -10 -6 -19 -13 -19 -16 0 -17 9 -1 25 15 15
14 15 14 -6z m-46 -82 c0 -5 -2 -10 -4 -10 -3 0 -8 5 -11 10 -3 6 -1 10 4 10
6 0 11 -4 11 -10z m280 -40 c0 -5 -5 -10 -11 -10 -5 0 -7 5 -4 10 3 6 8 10 11
10 2 0 4 -4 4 -10z m-245 -10 c3 -5 1 -10 -4 -10 -6 0 -11 5 -11 10 0 6 2 10
4 10 3 0 8 -4 11 -10z m-249 -35 c2 -26 -10 -33 -21 -15 -4 6 -1 17 5 25 16
19 15 19 16 -10z m354 21 c0 -11 -19 -15 -25 -6 -3 5 1 10 9 10 9 0 16 -2 16
-4z m-445 -16 c3 -5 1 -10 -4 -10 -6 0 -11 5 -11 10 0 6 2 10 4 10 3 0 8 -4
11 -10z m385 4 c0 -8 -19 -13 -24 -6 -3 5 1 9 9 9 8 0 15 -2 15 -3z m312 -8
c6 4 8 2 4 -4 -3 -6 2 -12 11 -14 15 -3 14 -5 -5 -10 -12 -3 -20 -2 -16 3 3 5
1 9 -4 9 -12 0 -24 -29 -17 -39 2 -5 -7 -6 -20 -3 -14 2 -22 8 -19 13 3 5 -2
6 -10 3 -18 -7 -20 4 -7 25 6 10 13 10 29 2 17 -9 21 -7 27 12 4 13 8 17 12 9
2 -6 10 -9 15 -6z m-752 -3 c0 -5 -11 -13 -25 -20 -14 -6 -25 -7 -25 -2 0 5
10 14 23 19 29 11 27 11 27 3z m234 -9 c3 -8 2 -12 -4 -9 -6 3 -10 10 -10 16
0 14 7 11 14 -7z m353 0 c-3 -3 -12 -4 -19 -1 -8 3 -5 6 6 6 11 1 17 -2 13 -5z
m240 -8 c0 -8 -6 -12 -14 -9 -7 3 -10 9 -7 14 8 14 21 11 21 -5z m-710 -13
c-4 -3 -2 -12 4 -20 15 -18 1 -17 -17 1 -18 19 -18 26 3 26 9 0 13 -3 10 -7z
m408 -3 c-3 -5 -11 -10 -16 -10 -6 0 -7 5 -4 10 3 6 11 10 16 10 6 0 7 -4 4
-10z m92 -17 c3 -7 -4 -16 -15 -22 -17 -9 -18 -7 -14 15 4 24 22 28 29 7z
m-174 -6 c7 4 8 0 4 -11 -4 -10 -2 -26 3 -37 8 -15 7 -19 -3 -19 -22 0 -44 30
-29 39 7 4 11 14 9 22 -2 8 -2 11 0 6 3 -4 10 -4 16 0z m121 -2 c-7 -17 -20
-20 -29 -6 -3 5 3 12 12 14 10 3 19 5 20 6 1 0 0 -6 -3 -14z m220 7 c3 -5 -1
-9 -9 -9 -8 0 -15 4 -15 9 0 4 4 8 9 8 6 0 12 -4 15 -8z m-122 -21 c11 6 22 8
26 5 3 -3 0 -6 -6 -6 -7 0 -12 -5 -12 -11 0 -5 5 -7 12 -3 6 4 8 3 5 -3 -3 -5
-20 -8 -38 -5 -24 4 -30 2 -24 -8 6 -10 4 -12 -8 -7 -10 3 -17 2 -17 -3 0 -5
-7 -7 -15 -3 -12 4 -8 11 17 28 18 13 34 19 36 14 2 -5 13 -4 24 2z m-278 -15
c9 12 11 10 11 -11 0 -14 -3 -25 -7 -25 -10 0 -48 38 -48 47 0 4 8 0 17 -9 14
-15 18 -15 27 -2z m-981 -11 c-3 -9 -8 -14 -10 -11 -3 3 -2 9 2 15 9 16 15 13
8 -4z m1340 -29 c-11 -14 -23 -23 -27 -19 -3 3 3 13 15 21 13 9 18 20 14 31
-5 12 -3 13 6 4 9 -9 7 -17 -8 -37z m-205 17 c-2 -13 5 -19 25 -21 15 -2 25
-8 21 -13 -3 -5 -10 -7 -15 -4 -5 4 -9 1 -9 -6 0 -8 -4 -8 -15 1 -13 11 -17 8
-26 -18 -12 -36 -33 -33 -35 3 -2 20 1 23 11 15 13 -11 37 8 34 26 -3 16 1 34
6 34 3 0 5 -8 3 -17z m-398 -3 c0 -5 -4 -10 -10 -10 -5 0 -10 5 -10 10 0 6 5
10 10 10 6 0 10 -4 10 -10z m520 -1 c0 -5 4 -7 10 -4 6 4 7 -1 3 -11 -4 -10
-2 -15 3 -11 5 3 10 -2 10 -12 0 -14 -9 -17 -49 -17 -32 0 -43 3 -31 7 12 5
13 8 5 8 -10 1 -6 9 10 25 27 26 39 31 39 15z m180 -23 c0 -3 -4 -8 -10 -11
-5 -3 -10 -1 -10 4 0 6 5 11 10 11 6 0 10 -2 10 -4z m-267 -55 c-2 -6 1 -11 5
-11 5 0 9 -7 9 -15 0 -8 -4 -15 -8 -15 -4 0 -5 -10 -2 -21 4 -15 2 -20 -7 -17
-7 2 -14 11 -16 19 -1 7 -6 23 -10 33 -5 14 -4 17 5 11 10 -6 11 -2 6 15 -5
17 -4 21 6 17 8 -2 13 -10 12 -16z m68 -14 c-10 -9 -11 -8 -5 6 3 10 9 15 12
12 3 -3 0 -11 -7 -18z m-194 -19 c22 -20 24 -21 36 -4 12 16 13 16 14 -4 1
-11 -2 -18 -8 -15 -5 4 -9 2 -9 -3 0 -6 -10 -8 -22 -4 -14 3 -19 1 -14 -6 5
-8 -1 -11 -16 -10 -21 2 -23 6 -19 37 3 32 2 34 -13 22 -17 -15 -32 -9 -22 8
9 15 46 4 73 -21z m75 0 c-7 -7 -12 -8 -12 -2 0 14 12 26 19 19 2 -3 -1 -11
-7 -17z m153 12 c-3 -5 -12 -10 -18 -10 -7 0 -6 4 3 10 19 12 23 12 15 0z
m-293 -52 c-8 -8 -9 -4 -5 13 4 13 8 18 11 10 2 -7 -1 -18 -6 -23z m-1071 -57
c-7 -5 -17 -15 -22 -22 -7 -11 -9 -9 -9 6 0 14 7 21 22 22 16 2 19 0 9 -6z
m526 -117 c-3 -3 -12 -4 -19 -1 -8 3 -5 6 6 6 11 1 17 -2 13 -5z m-537 -29 c0
-2 -6 -5 -13 -8 -8 -3 -14 1 -14 8 0 7 6 11 14 8 7 -3 13 -6 13 -8z m-70 -45
c0 -5 -5 -10 -11 -10 -5 0 -7 5 -4 10 3 6 8 10 11 10 2 0 4 -4 4 -10z m-1248
-32 c6 -17 -1 -38 -13 -38 -5 0 -9 11 -9 25 0 26 14 34 22 13z m1236 -5 c-9
-10 -13 -24 -11 -30 3 -7 0 -13 -7 -13 -6 0 -8 5 -5 10 3 6 -1 10 -10 10 -21
0 -9 19 19 30 30 12 31 12 14 -7z m-1168 -11 c0 -5 -9 -17 -20 -27 -25 -23
-27 -50 -3 -41 14 6 14 4 -2 -14 -18 -20 -20 -21 -33 -3 -11 15 -14 16 -22 3
-7 -12 -9 -10 -7 7 1 17 5 20 19 12 12 -6 18 -6 18 1 0 5 -4 10 -10 10 -18 0
-10 18 10 25 11 4 18 10 15 15 -3 5 1 11 7 13 20 8 28 8 28 -1z m1130 -42 c0
-5 -4 -10 -9 -10 -6 0 -13 5 -16 10 -3 6 1 10 9 10 9 0 16 -4 16 -10z m60 -15
c-7 -9 -18 -14 -24 -12 -6 2 -16 -2 -23 -8 -6 -7 -24 -10 -39 -7 -28 5 -28 5
-5 14 13 4 27 6 32 2 5 -3 9 1 9 8 0 8 13 15 31 16 28 2 30 1 19 -13z m-83
-51 c-3 -3 -12 -4 -19 -1 -8 3 -5 6 6 6 11 1 17 -2 13 -5z m43 2 c0 -2 -7 -6
-15 -10 -8 -3 -15 -1 -15 4 0 6 7 10 15 10 8 0 15 -2 15 -4z m-1198 -23 c-1
-4 7 -16 15 -25 15 -16 15 -18 0 -18 -10 0 -17 -5 -17 -11 0 -5 5 -7 10 -4 6
3 10 -1 10 -9 0 -9 6 -16 13 -17 9 0 9 -2 0 -6 -8 -3 -11 -14 -7 -29 7 -29 -7
-32 -24 -4 -7 12 -16 19 -20 16 -4 -3 -9 9 -10 25 -1 16 3 29 8 29 6 0 8 5 5
10 -3 6 -1 10 6 10 8 0 6 7 -5 19 -13 15 -14 20 -4 24 15 5 20 2 20 -10z
m1168 -33 c0 -5 -4 -10 -10 -10 -5 0 -10 5 -10 10 0 6 5 10 10 10 6 0 10 -4
10 -10z m-43 -57 c-3 -10 -5 -4 -5 12 0 17 2 24 5 18 2 -7 2 -21 0 -30z m-34
-24 c-36 -64 -40 -69 -46 -62 -4 3 0 14 8 23 8 9 17 27 19 41 2 13 5 25 5 27
1 1 8 2 16 2 13 0 13 -4 -2 -31z m-1089 -36 c4 -9 3 -19 0 -22 -4 -3 -9 0 -11
7 -3 6 -9 10 -14 6 -5 -3 -9 4 -9 15 0 23 25 19 34 -6z m1106 7 c0 -5 -5 -10
-11 -10 -5 0 -7 5 -4 10 3 6 8 10 11 10 2 0 4 -4 4 -10z m-20 -36 c0 -8 -4
-12 -10 -9 -5 3 -10 10 -10 16 0 5 5 9 10 9 6 0 10 -7 10 -16z m-1066 -35 c11
9 15 8 20 -5 4 -12 2 -15 -9 -10 -18 7 -20 -5 -3 -22 9 -9 9 -12 0 -12 -16 0
-11 -19 10 -44 11 -12 14 -23 8 -31 -5 -6 -5 -17 -1 -24 10 -15 2 -53 -12 -62
-5 -4 -7 -15 -2 -25 7 -18 8 -18 16 1 7 15 8 13 3 -10 -3 -16 -7 -31 -8 -33
-6 -5 -36 10 -36 19 0 4 7 6 16 2 14 -5 14 -3 3 15 -9 15 -17 18 -25 11 -9 -8
-12 -4 -10 15 2 15 0 26 -4 26 -4 0 -6 18 -4 39 1 21 -1 55 -6 75 -5 21 -4 36
1 36 5 0 6 12 3 28 -7 24 -6 26 9 13 13 -10 20 -11 31 -2z m1013 -26 c8 -23 6
-31 -11 -45 -21 -17 -21 -17 4 -11 l25 6 -22 -25 c-13 -13 -23 -29 -23 -34 0
-6 -11 -17 -25 -24 -14 -8 -23 -20 -21 -27 3 -7 1 -13 -4 -13 -5 0 -7 -6 -4
-13 2 -7 -4 -21 -15 -31 -11 -10 -18 -23 -15 -28 3 -5 1 -14 -4 -21 -6 -7 -11
-16 -12 -22 -1 -12 -43 -7 -51 7 -4 7 -9 7 -13 0 -3 -6 -1 -12 6 -14 7 -3 8
-10 3 -17 -6 -11 -9 -11 -16 2 -12 20 -3 42 24 56 12 7 30 29 40 50 10 21 28
49 40 63 12 13 22 30 22 38 0 20 17 39 30 33 6 -2 1 3 -9 11 -19 15 -19 16 7
16 17 0 27 5 27 15 0 8 -4 15 -8 15 -4 0 -8 9 -9 20 -2 30 24 24 34 -7z m30
13 c-3 -7 0 -19 6 -25 6 -6 8 -13 6 -16 -3 -2 -13 9 -23 25 -16 28 -16 30 0
30 10 0 14 -5 11 -14z m-997 -70 c-7 -7 -14 -6 -21 1 -9 9 -7 12 9 10 14 -1
18 -5 12 -11z m40 -175 c0 -6 -5 -13 -11 -17 -6 -3 -9 -17 -6 -30 3 -16 -2
-28 -12 -35 -12 -8 -9 -9 14 -5 l30 6 -25 -14 c-18 -10 -29 -11 -38 -4 -9 8
-16 8 -25 -2 -10 -10 -9 -12 5 -7 10 4 18 -1 21 -14 3 -10 10 -19 16 -19 6 0
8 7 5 15 -8 19 3 19 23 -1 12 -12 13 -20 5 -40 -7 -13 -18 -24 -26 -24 -20 0
-29 -17 -15 -26 8 -4 9 -3 5 4 -4 7 -1 12 8 12 15 0 21 -12 17 -33 -1 -5 8 -6
19 -2 17 5 21 1 26 -24 4 -17 11 -28 17 -24 5 3 7 0 5 -8 -3 -8 -11 -13 -17
-12 -6 2 -11 -6 -11 -17 0 -11 -6 -20 -14 -20 -8 0 -18 -5 -22 -11 -5 -9 1
-10 20 -5 24 6 26 4 26 -24 0 -17 -5 -40 -10 -51 -8 -15 -7 -23 3 -34 8 -8 18
-11 21 -7 4 3 4 -1 0 -11 -4 -11 -1 -17 7 -17 10 -1 9 -3 -2 -10 -26 -15 -33
-60 -13 -75 17 -12 16 -13 -3 -19 -14 -5 -20 -14 -19 -30 0 -13 3 -23 6 -21
14 9 32 -14 26 -33 -11 -34 -35 -35 -55 -1 -11 17 -21 25 -23 18 -2 -6 -4 10
-5 37 0 27 -2 58 -4 69 -1 11 1 30 5 43 6 16 3 22 -8 22 -20 0 -20 19 -1 44
16 22 20 40 6 32 -11 -7 -44 30 -37 42 3 6 -1 12 -9 16 -8 3 -15 11 -15 17 0
7 8 5 20 -6 12 -10 18 -25 15 -33 -4 -12 -2 -12 8 -3 17 13 10 61 -8 61 -12 0
-31 44 -27 63 1 4 -2 7 -6 7 -16 0 -13 78 2 83 8 3 17 1 19 -6 2 -7 8 -9 12
-4 5 4 1 13 -7 20 -9 6 -18 21 -20 32 -2 11 -10 19 -17 17 -8 -1 -9 3 -3 15 4
10 7 28 6 41 0 12 3 22 9 22 5 0 7 -9 4 -20 -6 -23 17 -27 43 -9 12 9 11 10
-4 5 -18 -6 -19 -5 -4 11 9 10 19 28 22 41 7 22 26 31 26 13z m-40 -35 c0 -2
-7 -7 -16 -10 -8 -3 -12 -2 -9 4 6 10 25 14 25 6z m5480 -28 c0 -6 -3 -8 -7
-5 -3 4 -12 -1 -19 -11 -10 -14 -15 -15 -26 -4 -10 10 -10 15 -1 20 19 12 53
12 53 0z m-4650 -18 c0 -5 -7 -10 -16 -10 -8 0 -12 5 -9 10 3 6 10 10 16 10 5
0 9 -4 9 -10z m4609 -30 c7 0 3 -10 -8 -21 -12 -13 -26 -19 -35 -16 -10 4 -16
1 -16 -9 0 -11 -6 -15 -20 -11 -11 3 -20 1 -20 -4 0 -5 -12 -14 -26 -19 -15
-6 -39 -19 -53 -29 -20 -14 -31 -17 -44 -9 -14 7 -18 6 -15 -4 1 -7 1 -13 -2
-13 -3 0 -16 -8 -30 -18 -28 -20 -44 -22 -34 -5 4 7 3 8 -4 4 -7 -4 -12 -13
-12 -20 0 -7 -10 -21 -22 -32 -14 -12 -19 -14 -13 -4 4 8 -4 4 -18 -10 -13
-14 -24 -29 -23 -35 0 -5 -6 -10 -14 -11 -26 -1 -60 -15 -60 -25 0 -5 5 -9 10
-9 6 0 10 5 10 10 0 6 5 10 10 10 19 0 10 -15 -21 -32 -33 -20 -64 -24 -54 -8
3 6 -1 7 -9 4 -9 -3 -16 -10 -16 -16 0 -5 4 -7 9 -3 5 3 12 1 16 -5 3 -5 1
-10 -4 -10 -6 0 -11 -6 -11 -14 0 -8 -9 -17 -20 -21 -11 -3 -33 -20 -50 -36
-17 -17 -44 -32 -62 -34 -17 -3 -35 -10 -40 -17 -6 -10 -8 -8 -8 5 0 9 5 17
11 17 6 0 3 7 -5 16 -19 19 -21 28 -3 21 7 -3 19 3 25 13 9 14 8 19 -3 24 -8
3 -15 0 -15 -6 0 -6 -3 -9 -6 -5 -4 3 9 22 27 41 27 29 35 33 42 21 4 -9 13
-13 18 -10 5 4 7 11 4 16 -3 5 1 6 9 3 18 -7 19 -4 10 20 -5 13 -9 14 -20 5
-11 -9 -14 -9 -14 0 0 6 12 16 26 22 15 5 40 21 56 34 16 14 38 25 49 25 11 0
18 4 14 10 -3 5 13 14 35 20 22 6 40 15 40 20 0 6 8 10 17 10 10 0 28 12 42
28 22 25 23 25 18 5 -6 -26 -4 -27 26 -12 29 15 52 41 52 58 0 7 19 21 43 30
23 9 39 21 35 25 -4 5 2 5 14 2 16 -5 25 -2 33 14 8 15 18 20 31 17 10 -3 22
-1 25 4 3 5 10 7 15 4 5 -4 9 0 9 7 1 8 9 4 19 -9 11 -13 24 -23 30 -23z m46
9 c-4 -5 -12 -9 -18 -8 -9 0 -8 2 1 6 6 2 9 10 6 15 -4 7 -2 8 5 4 6 -4 9 -12
6 -17z m-4711 -15 c3 -9 6 -28 5 -42 0 -15 -3 -21 -6 -14 -8 19 -21 14 -25
-10 -4 -27 -48 -39 -48 -14 0 9 7 16 15 16 8 0 14 3 14 8 -4 24 3 42 16 42 9
0 12 6 9 15 -4 8 -2 15 4 15 5 0 13 -7 16 -16z m49 9 c3 -5 -1 -14 -9 -21 -13
-12 -15 -11 -13 4 0 4 -5 11 -13 15 -9 6 -7 9 9 9 12 0 24 -3 26 -7z m4317
-114 c0 -6 -4 -7 -10 -4 -5 3 -10 11 -10 16 0 6 5 7 10 4 6 -3 10 -11 10 -16z
m-4382 -14 c3 -3 -2 -5 -11 -5 -9 0 -16 -3 -16 -7 4 -23 -3 -35 -16 -29 -8 3
-15 1 -15 -3 0 -5 5 -11 12 -13 13 -5 20 -38 8 -38 -5 0 -20 -11 -32 -25 -20
-21 -24 -22 -25 -8 0 10 -3 33 -6 51 l-4 33 26 -17 c26 -17 26 -17 9 3 -20 22
-24 43 -8 43 6 0 10 6 10 14 0 10 9 13 31 11 18 -3 34 -7 37 -10z m-124 -111
c20 -8 21 -21 1 -21 -8 0 -16 6 -19 14 -6 15 -4 15 18 7z m10 -50 c3 -8 2 -12
-4 -9 -6 3 -10 10 -10 16 0 14 7 11 14 -7z m-659 -64 c-10 -16 -35 -12 -35 6
0 8 5 12 10 9 6 -3 10 2 10 12 1 17 1 17 11 0 5 -9 7 -22 4 -27z m639 1 c3 -5
-1 -11 -9 -14 -9 -4 -12 -1 -8 9 6 16 10 17 17 5z m-64 -37 c0 -8 6 -17 14
-20 8 -3 17 -12 20 -20 4 -10 -1 -13 -17 -10 -12 2 -28 -1 -34 -6 -14 -11 -16
-7 -7 16 3 8 13 13 22 10 15 -5 15 -4 2 8 -16 14 -24 52 -9 42 5 -3 9 -12 9
-20z m70 -19 c0 -8 -4 -15 -9 -15 -13 0 -22 16 -14 24 11 11 23 6 23 -9z
m4065 -13 c-3 -3 -11 0 -18 7 -9 10 -8 11 6 5 10 -3 15 -9 12 -12z m25 -37 c0
-8 -9 -19 -19 -25 -32 -16 -36 -12 -13 13 12 13 19 27 15 32 -5 4 -2 5 5 1 6
-4 12 -14 12 -21z m-4190 -20 c10 -12 10 -15 -4 -15 -9 0 -16 7 -16 15 0 8 2
15 4 15 2 0 9 -7 16 -15z m18 -43 c5 -16 -9 -14 -33 4 -19 14 -19 14 5 11 13
-2 26 -9 28 -15z m4112 14 c0 -3 -4 -8 -10 -11 -5 -3 -10 -1 -10 4 0 6 5 11
10 11 6 0 10 -2 10 -4z m-67 -39 c5 -14 -15 -47 -29 -47 -5 0 -16 -9 -24 -20
-20 -27 -31 -25 -26 4 2 14 -1 27 -7 31 -7 3 3 3 21 0 17 -2 32 0 32 5 0 6 -4
10 -10 10 -5 0 -10 4 -10 9 0 5 10 7 22 3 14 -3 19 -2 14 6 -4 7 -3 12 2 12 6
0 12 -6 15 -13z m30 -2 c-3 -9 -8 -14 -10 -11 -3 3 -2 9 2 15 9 16 15 13 8 -4z
m-4103 -65 c0 -54 -16 -73 -37 -45 -17 25 -17 50 3 69 8 9 13 20 9 26 -3 6 1
7 9 4 12 -4 16 -20 16 -54z m-473 -10 c-1 -11 -5 -20 -9 -20 -4 0 -8 9 -8 20
0 11 4 20 9 20 6 0 9 -9 8 -20z m70 13 c-4 -3 -2 -12 4 -19 8 -10 4 -12 -17
-10 -16 2 -30 8 -32 15 -2 7 3 9 14 4 12 -4 15 -3 10 5 -4 8 -1 12 10 12 10 0
14 -3 11 -7z m4308 -33 c3 -5 1 -10 -4 -10 -6 0 -11 5 -11 10 0 6 2 10 4 10 3
0 8 -4 11 -10z m-4334 -24 c0 -5 -13 -11 -28 -12 -27 -3 -27 -2 -8 12 20 15
37 15 36 0z m4354 4 c-3 -5 -14 -10 -23 -9 -14 0 -13 2 3 9 27 11 27 11 20 0z
m-3965 -20 c0 -5 -4 -10 -10 -10 -5 0 -10 5 -10 10 0 6 5 10 10 10 6 0 10 -4
10 -10z m3952 -55 c5 -26 -16 -36 -25 -12 -3 6 -6 1 -6 -13 -1 -17 -10 -29
-28 -37 -32 -15 -45 -7 -19 12 11 9 15 19 10 27 -5 9 -2 8 11 -2 16 -14 17
-13 11 8 -6 16 -3 22 8 22 9 0 16 7 16 16 0 23 17 8 22 -21z m-4332 13 c0 -11
-12 -10 -30 2 -12 7 -10 9 8 7 12 0 22 -5 22 -9z m4250 -8 c0 -5 -4 -10 -10
-10 -5 0 -10 5 -10 10 0 6 5 10 10 10 6 0 10 -4 10 -10z m-3923 -37 c-9 -9
-20 -13 -24 -9 -4 4 -1 11 7 16 8 6 11 10 7 10 -5 0 -5 5 -1 11 4 8 9 8 17 0
8 -8 6 -16 -6 -28z m-302 18 c6 -1 4 -5 -3 -10 -15 -9 -62 -2 -62 9 0 5 12 7
28 5 15 -2 32 -4 37 -4z m-58 -58 c0 -16 -1 -20 -4 -10 -2 9 -10 17 -16 17 -9
0 2 12 18 20 0 0 1 -12 2 -27z m29 1 c-3 -8 -1 -14 4 -14 6 0 10 -5 10 -11 0
-23 -25 -1 -27 25 -1 16 2 24 8 20 6 -3 8 -12 5 -20z m311 0 c-3 -3 -12 -4
-19 -1 -8 3 -5 6 6 6 11 1 17 -2 13 -5z m3929 -48 c0 -13 -5 -22 -9 -19 -5 3
-6 11 -3 18 3 8 0 16 -7 19 -7 2 -5 5 4 5 12 1 16 -7 15 -23z"/>
<path d="M5993 8063 c-15 -5 -17 -23 -4 -23 5 0 11 7 15 15 3 8 4 15 3 14 -1
0 -8 -3 -14 -6z"/>
<path d="M6010 8016 c7 -7 14 -6 21 1 9 9 7 12 -9 10 -14 -1 -18 -5 -12 -11z"/>
<path d="M6010 7690 c0 -5 5 -10 11 -10 5 0 7 5 4 10 -3 6 -8 10 -11 10 -2 0
-4 -4 -4 -10z"/>
<path d="M4993 7629 c-10 -4 -37 -8 -60 -8 -24 -1 -43 -5 -43 -11 0 -5 -3 -9
-7 -8 -16 3 -69 -15 -101 -34 -19 -12 -43 -18 -57 -15 -17 3 -25 0 -25 -9 0
-8 -5 -14 -11 -14 -5 0 -8 4 -4 9 3 5 0 13 -6 16 -16 11 -60 -16 -57 -34 2
-10 -5 -16 -18 -16 -11 0 -28 -8 -38 -17 -21 -21 -32 -23 -40 -5 -5 9 -7 9
-12 -1 -3 -6 -11 -9 -17 -5 -7 4 -8 0 -4 -12 6 -14 3 -17 -18 -13 -13 3 -26 0
-28 -6 -3 -8 -9 -7 -20 2 -14 12 -16 11 -14 -7 1 -13 6 -20 14 -17 7 3 13 2
13 -3 0 -17 -14 -20 -33 -6 -18 12 -23 12 -49 -6 -15 -11 -28 -27 -28 -35 0
-8 -7 -14 -15 -14 -8 0 -15 -5 -15 -11 0 -6 -7 -9 -15 -5 -9 3 -15 0 -15 -10
0 -8 -7 -17 -15 -20 -8 -4 -12 -10 -9 -15 3 -5 -1 -9 -9 -9 -11 0 -13 -7 -9
-22 3 -14 2 -19 -6 -14 -7 4 -12 3 -12 -3 0 -5 -11 -8 -25 -7 -13 2 -22 -1
-19 -5 3 -5 0 -9 -7 -9 -7 0 -5 -6 6 -14 18 -13 17 -14 -8 -40 -15 -15 -25
-32 -22 -37 4 -5 -1 -9 -9 -9 -16 0 -17 -3 -20 -39 0 -11 -11 -28 -24 -40 -13
-11 -25 -27 -26 -36 -1 -9 -7 -20 -13 -23 -12 -9 -25 -54 -12 -46 5 3 9 0 9
-6 0 -6 -7 -13 -15 -16 -8 -4 -15 -16 -15 -28 0 -12 -5 -27 -12 -34 -7 -7 -8
-12 -4 -12 5 0 1 -11 -8 -24 -11 -18 -12 -26 -3 -29 8 -3 7 -9 -5 -18 -24 -20
-68 -108 -68 -136 0 -13 -6 -39 -14 -58 -13 -31 -13 -36 2 -45 16 -9 16 -9 0
-10 -10 0 -18 -7 -18 -15 0 -8 -5 -15 -12 -15 -6 0 -3 -6 8 -14 10 -8 16 -18
11 -22 -4 -4 -7 -2 -7 4 0 7 -5 12 -12 12 -6 0 -8 -3 -5 -7 4 -3 2 -12 -5 -20
-8 -11 -7 -12 6 -7 11 4 16 1 16 -10 0 -9 -7 -16 -15 -16 -8 0 -15 -9 -15 -21
0 -11 -4 -18 -8 -15 -4 2 -7 -7 -7 -22 1 -15 -3 -32 -7 -38 -9 -12 -6 -63 5
-81 4 -6 0 -16 -8 -23 -21 -18 -19 -44 3 -36 14 5 14 4 -2 -9 -11 -8 -26 -15
-33 -15 -17 0 -17 -20 0 -21 6 0 2 -5 -11 -11 -22 -11 -26 -37 -8 -50 11 -8
17 -38 8 -37 -30 4 -52 -3 -52 -17 0 -11 6 -15 18 -12 15 4 18 1 14 -18 -2
-13 -12 -25 -21 -28 -9 -3 2 -3 23 0 35 5 38 4 27 -10 -7 -8 -19 -12 -27 -9
-8 3 -14 0 -14 -6 0 -6 -12 -17 -27 -25 -16 -8 -23 -15 -16 -16 7 0 10 -7 6
-17 -4 -12 1 -9 16 7 20 22 21 23 12 3 -14 -29 -14 -33 4 -33 8 0 15 5 15 10
0 19 16 10 17 -10 2 -18 -14 -26 -41 -21 -5 1 -5 -4 1 -11 11 -15 -9 -63 -21
-51 -4 4 -4 0 0 -10 7 -19 -13 -50 -27 -41 -5 3 -9 -2 -9 -10 0 -9 -7 -16 -15
-16 -8 0 -15 -7 -15 -16 0 -8 -4 -12 -10 -9 -5 3 -10 2 -10 -3 0 -6 -12 -13
-27 -16 -16 -4 -36 -9 -45 -12 -9 -3 -26 4 -37 15 -12 12 -21 17 -21 11 0 -5
-8 -2 -18 8 -11 11 -18 32 -18 53 1 30 -2 34 -26 37 -16 2 -28 9 -28 15 0 7
-7 4 -14 -5 -11 -15 -11 -30 0 -88 13 -64 19 -77 71 -136 32 -35 65 -65 73
-66 8 0 22 -2 30 -2 8 -1 14 -9 14 -19 -1 -9 2 -15 6 -12 4 2 16 -5 28 -15 12
-11 30 -20 40 -20 10 0 25 -11 32 -25 14 -26 30 -33 30 -14 0 8 4 9 13 0 8 -6
17 -9 21 -6 3 3 2 0 -3 -6 -6 -8 -4 -17 6 -27 8 -8 13 -25 11 -37 -6 -28 30
-55 43 -33 5 7 9 19 9 26 0 6 4 12 10 12 5 0 22 13 37 28 30 31 78 48 88 32 4
-6 13 -7 24 -1 10 6 33 6 54 1 22 -5 37 -4 37 1 0 6 10 5 21 -2 17 -9 24 -8
31 2 7 11 11 11 15 1 2 -6 10 -9 15 -6 6 4 8 2 5 -3 -10 -16 20 -36 40 -28 17
7 16 8 -2 15 -19 8 -19 9 3 9 19 1 22 5 17 21 -4 13 -2 20 6 20 7 0 21 8 32
18 20 16 20 16 13 -2 -5 -16 -4 -17 9 -6 13 11 14 10 10 -3 -4 -8 -2 -18 3
-21 6 -3 13 1 16 9 4 13 10 14 26 5 26 -14 28 6 3 27 -17 14 -17 14 0 9 10 -3
17 0 17 8 0 8 5 16 10 18 15 5 22 55 10 63 -6 4 -17 22 -25 41 -8 20 -19 33
-25 29 -9 -6 -14 7 -11 28 0 4 -3 7 -8 7 -5 0 -12 11 -15 25 -4 14 -13 25 -22
25 -8 0 -18 8 -21 18 -4 9 -10 20 -15 23 -5 3 -10 16 -11 27 -1 12 -9 25 -19
28 -28 9 -22 34 10 35 25 2 25 2 3 6 -13 3 -26 13 -28 24 -3 10 -9 16 -14 13
-5 -3 -9 0 -9 5 0 6 6 11 13 12 6 1 1 4 -13 9 -23 7 -24 8 -5 14 36 13 50 23
45 32 -3 5 -8 8 -12 7 -4 -2 -4 5 -1 14 4 11 3 14 -5 9 -7 -4 -12 -2 -12 3 0
15 16 14 33 -4 13 -12 16 -12 21 8 9 33 7 39 -6 32 -7 -4 -6 -1 3 7 9 7 14 19
12 26 -3 6 6 16 19 21 l23 10 -23 0 c-14 1 -21 5 -16 12 3 6 18 8 33 5 14 -3
21 -3 14 0 -9 4 -9 13 -2 32 l9 27 -20 -24 c-11 -13 -23 -21 -27 -18 -3 4 8
20 26 36 29 27 44 60 21 46 -6 -4 -8 -11 -5 -16 4 -5 -1 -9 -9 -9 -10 0 -16 9
-16 26 0 14 4 23 9 20 11 -7 33 18 29 34 -2 7 4 15 12 17 13 4 13 3 0 -6 -11
-8 -12 -11 -2 -11 8 0 16 9 19 20 3 11 10 20 17 20 6 0 20 8 31 16 14 11 15
15 5 14 -19 -3 -60 10 -60 19 0 4 -16 6 -35 6 -22 -1 -35 3 -35 11 0 20 17 26
24 8 3 -8 11 -12 16 -9 8 5 7 11 -1 21 -9 11 -9 14 0 14 7 0 10 4 7 8 -8 13
36 47 59 47 14 0 21 8 23 25 2 23 2 24 -12 7 -17 -22 -25 -11 -17 22 l7 25 21
-27 21 -27 -1 35 c-1 19 -4 30 -8 24 -13 -22 -26 1 -26 48 0 26 2 41 5 33 7
-20 32 -44 32 -31 0 5 -4 13 -10 16 -5 3 -10 17 -10 31 0 17 5 24 19 24 27 0
34 15 16 33 -20 20 -19 34 2 46 15 8 15 11 3 27 -14 16 -13 16 6 6 45 -24 87
21 70 75 -6 20 27 83 44 83 5 0 9 4 7 8 -2 10 72 82 84 82 17 0 9 18 -10 23
-18 4 -37 -16 -32 -36 1 -4 -12 -14 -29 -21 -17 -7 -27 -16 -23 -20 5 -5 -1
-6 -13 -2 -14 4 -29 -1 -48 -19 -15 -14 -29 -25 -31 -25 -11 0 0 57 14 74 9
11 10 16 4 12 -20 -11 -15 15 5 30 16 13 16 14 0 8 -22 -8 -22 3 -3 50 8 20
16 39 18 43 1 5 7 7 14 7 6 -1 9 5 6 12 -3 8 0 14 6 14 6 0 11 17 11 40 0 23
5 40 11 40 6 0 9 -7 5 -15 -6 -18 -1 -19 25 -5 23 13 25 33 4 50 -8 7 -15 18
-14 24 0 7 2 6 6 -1 7 -18 23 -16 23 1 0 8 -11 16 -25 18 l-24 3 32 42 c18 23
39 42 48 43 8 0 20 5 27 12 7 7 12 9 12 5 0 -4 14 8 31 28 17 19 35 35 40 35
6 0 35 18 65 41 53 39 124 75 124 64 0 -3 8 -1 19 4 19 11 46 15 169 27 40 4
75 11 78 15 3 5 2 10 -3 10 -75 12 -160 16 -180 8z m-693 -334 c0 -2 -7 -8
-15 -15 -12 -10 -15 -10 -15 2 0 8 7 15 15 15 8 0 15 -1 15 -2z m-40 -35 c0
-5 -2 -10 -4 -10 -3 0 -8 5 -11 10 -3 6 -1 10 4 10 6 0 11 -4 11 -10z m214
-400 c-13 -20 -20 -26 -26 -17 -4 7 1 19 15 29 30 24 31 23 11 -12z m-14 -103
c0 -10 -4 -16 -10 -12 -5 3 -7 12 -3 20 3 8 0 15 -7 15 -6 0 -8 5 -4 11 8 14
24 -8 24 -34z m-206 -389 c-3 -4 -9 -8 -15 -8 -5 0 -9 4 -9 8 0 5 7 9 15 9 8
0 12 -4 9 -9z m-399 -109 c-4 -5 -12 -9 -18 -8 -9 0 -8 2 1 6 6 2 9 10 6 15
-4 7 -2 8 5 4 6 -4 9 -12 6 -17z m372 -131 c-15 -11 -25 -24 -21 -29 7 -13 -5
-31 -17 -23 -6 3 -4 16 7 32 20 32 45 54 53 46 3 -3 -6 -15 -22 -26z m-73
-134 c4 -9 4 -19 1 -22 -3 -3 -5 0 -5 6 0 7 -7 12 -16 12 -8 0 -12 5 -9 10 9
15 22 12 29 -6z m56 -21 c0 -7 -39 17 -46 28 -3 6 5 3 20 -6 14 -10 26 -19 26
-22z m-320 -17 c0 -11 -19 -15 -25 -6 -3 5 1 10 9 10 9 0 16 -2 16 -4z m-75
-86 c3 -6 -1 -7 -9 -4 -18 7 -21 14 -7 14 6 0 13 -4 16 -10z m245 0 c-8 -5
-22 -10 -30 -10 -13 0 -13 1 0 10 8 5 22 10 30 10 13 0 13 -1 0 -10z m-130
-30 c0 -6 -7 -13 -16 -17 -8 -3 -13 -12 -10 -20 3 -8 1 -11 -4 -8 -6 3 -10 1
-10 -4 0 -26 -15 -8 -17 20 -2 26 1 29 17 24 12 -4 20 -2 20 4 0 6 5 11 10 11
6 0 10 -5 10 -10z m74 -19 c8 -6 20 -10 27 -9 8 2 13 -3 12 -9 -2 -7 0 -12 5
-12 4 1 18 1 31 0 18 -1 21 -4 13 -14 -14 -17 19 -39 45 -30 17 5 17 5 0 -8
-17 -14 -17 -16 2 -38 26 -29 26 -41 4 -42 -11 0 -13 -3 -5 -6 15 -6 16 -43 1
-43 -5 0 -7 -4 -4 -10 3 -5 2 -10 -4 -10 -5 0 -11 5 -13 12 -3 8 -33 12 -91
13 -48 0 -87 4 -87 8 0 5 -5 5 -10 2 -17 -11 -55 28 -52 53 2 12 7 22 11 22 9
0 38 71 45 110 2 14 5 26 5 27 3 6 53 -6 65 -16z"/>
<path d="M5980 7620 c0 -5 5 -10 11 -10 5 0 7 5 4 10 -3 6 -8 10 -11 10 -2 0
-4 -4 -4 -10z"/>
<path d="M4540 7489 c0 -5 5 -7 10 -4 6 3 10 8 10 11 0 2 -4 4 -10 4 -5 0 -10
-5 -10 -11z"/>
<path d="M3239 7444 c-19 -10 -19 -12 -5 -17 11 -4 15 -3 10 4 -3 6 1 10 12 9
29 -3 44 -1 44 8 0 11 -37 9 -61 -4z"/>
<path d="M3390 7410 c0 -6 -10 -9 -22 -7 -13 2 -17 2 -10 0 6 -3 12 -9 12 -15
0 -5 -7 -8 -15 -4 -10 4 -15 -1 -15 -14 0 -14 7 -20 23 -20 38 -1 117 -86 102
-111 -8 -12 18 -7 27 6 4 6 8 -4 8 -21 0 -32 21 -60 34 -47 4 4 11 1 16 -7 15
-23 11 -37 -4 -18 -7 10 -16 15 -20 11 -3 -4 -12 2 -19 12 -12 16 -14 16 -20
2 -3 -9 0 -23 8 -31 13 -12 12 -15 -1 -20 -24 -9 -31 -7 -14 4 13 8 11 11 -7
16 -29 8 -39 34 -13 34 11 0 20 5 20 10 0 11 -11 13 -34 4 -9 -3 -16 -14 -16
-23 0 -13 -2 -13 -9 -2 -7 11 -9 11 -14 0 -4 -12 -7 -11 -16 1 -8 11 -11 12
-11 2 0 -9 -7 -11 -19 -7 -11 3 -21 0 -24 -8 -4 -10 1 -13 18 -9 15 2 31 -4
44 -17 12 -12 26 -19 31 -16 5 3 15 -3 22 -15 7 -11 16 -20 20 -20 5 0 17 -9
29 -21 16 -16 18 -23 8 -35 -9 -11 -8 -14 6 -14 19 0 65 -47 65 -67 0 -7 -6
-13 -12 -13 -9 0 -8 -4 2 -10 10 -7 11 -10 2 -10 -7 0 -15 7 -18 15 -4 8 -12
15 -19 15 -7 0 -25 15 -41 33 -45 50 -59 59 -89 51 -25 -6 -25 -7 -9 -25 9
-11 22 -19 29 -19 7 0 20 -9 30 -20 10 -11 25 -20 33 -20 9 0 13 -3 10 -6 -3
-3 5 -17 18 -31 16 -17 21 -30 15 -37 -6 -7 -6 -18 -1 -26 6 -9 5 -17 -3 -22
-9 -6 -9 -8 1 -8 27 0 10 -18 -25 -25 -20 -3 -61 -16 -91 -27 -48 -18 -53 -22
-39 -33 21 -15 22 -26 2 -19 -8 4 -15 2 -15 -3 0 -15 33 -12 53 5 21 19 22 36
2 28 -8 -3 -15 -1 -15 4 0 6 12 10 28 10 15 0 34 4 42 10 9 6 20 5 29 -3 12
-9 13 -9 7 1 -4 6 -3 12 2 12 6 0 12 -6 15 -14 4 -10 -2 -16 -16 -18 -12 -2
-23 -10 -23 -18 -3 -32 -5 -34 -14 -20 -7 11 -10 11 -10 2 0 -7 -4 -10 -10 -7
-5 3 -10 2 -10 -4 0 -5 -17 -15 -37 -21 -52 -17 -61 -28 -30 -35 14 -4 27 -14
29 -22 4 -21 58 -27 58 -7 0 8 5 14 11 14 5 0 7 4 4 10 -3 6 1 7 9 4 9 -3 16
-11 16 -17 0 -6 6 -2 14 9 15 19 15 19 38 -4 21 -21 22 -24 6 -33 -10 -6 -18
-15 -18 -21 0 -6 3 -9 6 -6 3 4 19 2 36 -2 24 -7 28 -7 19 4 -12 14 -5 46 10
46 5 0 9 5 9 11 0 5 -4 8 -9 5 -13 -9 -27 16 -26 47 0 15 -3 27 -8 27 -4 0 -5
5 -1 11 4 8 12 2 21 -16 10 -19 20 -25 33 -22 11 3 21 0 24 -7 2 -6 5 -4 5 5
1 9 -6 22 -15 30 -13 10 -17 10 -26 -2 -8 -12 -9 -12 -5 1 2 8 -3 23 -12 34
-11 12 -3 10 23 -8 35 -23 41 -25 49 -11 10 18 -9 49 -24 39 -5 -3 -9 -1 -9 3
0 5 9 14 20 21 11 7 20 18 20 25 0 6 6 24 14 39 16 30 15 143 -2 175 -8 14 -8
23 -1 30 8 8 7 18 -1 33 -8 15 -8 20 -1 16 6 -4 11 -2 11 3 0 6 -7 11 -15 11
-15 0 -21 25 -7 33 4 2 1 2 -5 1 -7 -2 -13 4 -13 12 0 8 -4 12 -10 9 -5 -3
-10 -1 -10 4 0 6 4 11 10 11 26 0 -27 79 -63 94 -9 3 -8 7 2 14 24 17 -29 43
-75 38 -38 -5 -38 -5 -19 12 12 9 24 25 28 34 5 15 4 16 -13 5 -11 -6 -20 -15
-20 -18 0 -7 -57 -2 -70 6 -5 3 -11 1 -15 -5 -7 -12 -25 -4 -25 11 0 6 4 8 9
5 5 -3 9 6 9 19 0 14 -2 25 -4 25 -2 0 -4 -5 -4 -10z m45 -70 c3 -5 2 -10 -4
-10 -5 0 -13 5 -16 10 -3 6 -2 10 4 10 5 0 13 -4 16 -10z m35 -30 c0 -5 -4
-10 -9 -10 -6 0 -13 5 -16 10 -3 6 1 10 9 10 9 0 16 -4 16 -10z m83 -5 c-3 -9
-8 -14 -10 -11 -3 3 -2 9 2 15 9 16 15 13 8 -4z"/>
<path d="M6025 7379 c7 -11 35 -12 35 -1 0 4 -9 8 -20 9 -11 1 -18 -2 -15 -8z"/>
<path d="M4583 7335 c-9 -9 -9 -16 -2 -20 12 -8 22 0 25 20 3 19 -7 19 -23 0z"/>
<path d="M6010 7295 c0 -8 4 -15 10 -15 5 0 7 7 4 15 -4 8 -8 15 -10 15 -2 0
-4 -7 -4 -15z"/>
<path d="M2915 7260 c2 -4 -6 -5 -19 -3 -13 3 -27 0 -30 -6 -4 -6 -16 -11 -27
-11 -10 0 -19 -5 -19 -11 0 -6 9 -8 20 -5 11 3 29 9 40 12 15 4 18 1 14 -9 -5
-13 0 -13 30 1 41 20 46 36 11 38 -14 1 -23 -1 -20 -6z"/>
<path d="M5117 7256 c-4 -10 -1 -13 8 -9 8 3 12 9 9 14 -7 12 -11 11 -17 -5z"/>
<path d="M5848 7253 c6 -2 18 -2 25 0 6 3 1 5 -13 5 -14 0 -19 -2 -12 -5z"/>
<path d="M5139 7228 c-11 -8 -10 -9 4 -4 16 5 19 2 21 -26 1 -7 10 -16 21 -19
11 -3 19 -11 17 -18 -1 -7 6 -9 20 -6 13 3 30 1 38 -5 13 -9 13 -12 -2 -21
-10 -5 -18 -20 -18 -33 0 -19 4 -22 25 -18 27 5 34 22 9 22 -9 0 -14 5 -12 12
7 20 23 19 48 -4 14 -13 28 -22 32 -20 5 1 8 -2 8 -8 0 -5 10 -11 23 -11 18
-1 18 -2 4 -6 -10 -3 -32 1 -48 7 -16 7 -32 10 -35 7 -7 -7 34 -77 45 -77 4 0
7 -13 6 -30 -1 -16 4 -31 12 -34 7 -3 13 1 13 11 0 11 3 14 10 7 11 -11 2 -56
-10 -49 -5 3 -11 1 -15 -5 -3 -5 -1 -10 4 -10 6 0 11 -7 11 -16 0 -8 -4 -12
-10 -9 -5 3 -10 -1 -10 -10 0 -20 -98 -125 -114 -122 -6 1 -10 -3 -9 -10 2 -7
-7 -18 -20 -24 -12 -7 -25 -17 -29 -22 -3 -6 -19 -11 -34 -13 -16 -2 -34 -10
-40 -18 -8 -12 -13 -13 -22 -4 -9 9 -12 7 -12 -10 0 -12 -5 -22 -11 -22 -5 0
-7 5 -4 10 3 6 -1 10 -9 10 -9 0 -16 -4 -16 -10 0 -5 -10 -9 -22 -9 -17 1 -19
2 -6 6 16 4 16 6 4 19 -16 15 -27 18 -25 7 1 -5 1 -17 0 -28 -1 -17 -3 -18
-11 -5 -7 11 -10 12 -10 2 0 -8 -7 -11 -17 -8 -10 3 -31 2 -48 -3 l-30 -10 30
0 c50 -1 64 -4 60 -12 -3 -4 -13 -5 -23 -2 -10 2 -34 -2 -53 -10 -27 -12 -30
-16 -12 -16 12 -1 25 4 28 9 3 6 11 10 17 10 6 0 5 -7 -3 -17 -12 -15 -12 -16
4 -10 9 4 17 2 17 -5 0 -7 4 -7 14 1 11 10 15 8 19 -6 4 -15 5 -15 6 -2 0 9
10 19 21 22 21 5 45 -16 35 -33 -10 -16 22 -12 39 6 9 8 16 11 16 6 0 -10 62
2 85 16 11 7 23 11 65 19 16 3 27 9 24 14 -3 5 1 9 8 9 19 0 98 73 98 90 0 9
11 24 25 34 13 10 22 22 19 27 -3 5 -1 9 3 9 11 0 34 60 27 71 -3 5 0 9 5 9 6
0 10 3 10 8 -4 25 4 46 25 65 13 12 27 37 30 54 4 18 17 40 29 48 21 14 21 15
2 16 -11 1 -27 0 -35 -1 -12 -1 -12 1 -3 11 10 10 8 16 -9 31 -12 10 -16 18
-10 18 7 0 12 4 12 9 0 5 -10 7 -22 3 -15 -3 -19 -2 -14 7 9 14 -12 43 -25 35
-12 -7 -49 5 -49 16 0 5 8 11 18 13 10 3 6 5 -10 6 -16 0 -28 5 -28 10 0 12
-56 34 -72 28 -7 -2 -23 5 -36 16 -18 17 -27 19 -40 11 -10 -7 -26 -8 -38 -4
-11 5 -27 4 -35 -2z"/>
<path d="M3310 7202 c0 -6 5 -14 10 -17 8 -5 7 -12 -2 -23 -9 -13 -7 -12 9 1
13 12 27 16 35 11 10 -6 10 -4 -1 9 -8 10 -16 15 -19 12 -3 -3 -11 0 -19 6 -9
8 -13 8 -13 1z"/>
<path d="M4813 7139 c-23 -4 -69 -19 -103 -32 -38 -16 -63 -21 -66 -15 -4 6
-10 4 -16 -6 -5 -9 -13 -14 -17 -12 -5 3 -18 -5 -29 -17 -15 -16 -18 -27 -12
-37 8 -13 10 -12 10 3 0 10 5 15 10 12 6 -3 10 -2 10 3 0 27 194 92 275 92 24
0 47 5 50 10 7 12 -41 11 -112 -1z"/>
<path d="M5030 7139 c-34 -6 -33 -6 13 -8 46 -1 59 3 35 11 -7 2 -29 1 -48 -3z"/>
<path d="M5150 7140 l-25 -6 23 -8 c25 -8 27 -17 10 -35 -7 -6 6 -2 29 11 45
24 58 44 22 33 -12 -4 -24 -3 -28 2 -3 5 -17 7 -31 3z"/>
<path d="M2855 7090 c-9 -14 1 -27 25 -33 25 -6 29 28 4 37 -21 8 -22 8 -29
-4z"/>
<path d="M4918 7095 c-2 -3 -26 -6 -52 -6 -26 -1 -49 -6 -52 -11 -3 -4 -18 -8
-34 -8 -16 0 -31 -4 -34 -9 -3 -4 -18 -11 -33 -14 -16 -3 -37 -13 -48 -22 -20
-16 -20 -16 2 -6 25 13 100 18 110 8 3 -4 1 -18 -5 -32 -19 -41 -14 -86 14
-140 55 -105 114 -139 200 -115 94 27 153 108 154 210 0 81 -7 95 -55 119 -40
20 -155 38 -167 26z"/>
<path d="M5995 6961 c-3 -5 -1 -12 5 -16 5 -3 10 1 10 9 0 18 -6 21 -15 7z"/>
<path d="M5940 6899 c0 -5 5 -7 10 -4 6 3 10 8 10 11 0 2 -4 4 -10 4 -5 0 -10
-5 -10 -11z"/>
<path d="M5990 6889 c0 -5 5 -7 10 -4 6 3 10 8 10 11 0 2 -4 4 -10 4 -5 0 -10
-5 -10 -11z"/>
<path d="M4531 6864 c0 -11 3 -14 6 -6 3 7 2 16 -1 19 -3 4 -6 -2 -5 -13z"/>
<path d="M5250 6796 c16 -8 31 -10 43 -4 27 14 21 18 -25 18 -42 0 -42 -1 -18
-14z"/>
<path d="M5080 6750 c0 -5 5 -10 11 -10 5 0 7 5 4 10 -3 6 -8 10 -11 10 -2 0
-4 -4 -4 -10z"/>
<path d="M5000 6730 c0 -5 5 -10 11 -10 5 0 7 5 4 10 -3 6 -8 10 -11 10 -2 0
-4 -4 -4 -10z"/>
<path d="M4755 6680 c-3 -4 -2 -16 1 -25 4 -10 1 -21 -7 -27 -11 -8 -10 -9 4
-4 10 3 23 6 28 6 6 0 6 8 -1 19 -7 14 -6 21 2 23 8 3 6 7 -5 11 -9 3 -19 2
-22 -3z"/>
<path d="M3130 6661 c0 -5 7 -11 14 -14 10 -4 13 -1 9 9 -6 15 -23 19 -23 5z"/>
<path d="M4710 6640 c0 -5 5 -10 10 -10 6 0 10 5 10 10 0 6 -4 10 -10 10 -5 0
-10 -4 -10 -10z"/>
<path d="M3220 6613 c0 -6 -15 -20 -32 -32 -18 -11 -27 -21 -20 -21 6 0 12 -6
12 -14 0 -19 29 -29 45 -16 10 8 15 6 18 -7 4 -15 5 -14 6 4 1 24 -14 39 -24
23 -3 -5 -10 -10 -16 -10 -5 0 -4 9 3 19 11 19 13 19 40 3 25 -15 29 -15 43
-1 14 14 14 17 1 28 -8 7 -25 13 -38 14 -13 0 -26 6 -30 12 -5 7 -8 6 -8 -2z"/>
<path d="M3320 6610 c0 -5 5 -10 11 -10 5 0 7 5 4 10 -3 6 -8 10 -11 10 -2 0
-4 -4 -4 -10z"/>
<path d="M3312 6583 c6 -7 7 -13 2 -13 -4 0 -3 -5 4 -12 9 -9 15 -9 24 0 8 8
15 8 24 2 8 -8 13 -4 16 13 4 23 2 24 -38 23 -32 -1 -40 -4 -32 -13z"/>
<path d="M4997 6543 c-4 -3 -7 -11 -7 -17 0 -6 5 -5 12 2 6 6 9 14 7 17 -3 3
-9 2 -12 -2z"/>
<path d="M3545 6519 c-4 -6 -4 -13 -1 -16 3 -4 6 -2 6 4 0 6 12 8 28 5 15 -2
24 -1 19 4 -12 13 -45 15 -52 3z"/>
<path d="M3621 6503 c-1 -6 -4 -20 -7 -30 -5 -17 -5 -17 6 0 6 10 9 23 6 30
-3 9 -5 9 -5 0z"/>
<path d="M3579 6493 c0 -5 -2 -15 -4 -24 -1 -9 4 -16 11 -16 17 0 18 14 2 20
-10 4 -10 6 0 6 14 1 17 21 2 21 -5 0 -10 -3 -11 -7z"/>
<path d="M4386 6425 c-11 -8 -29 -15 -40 -15 -10 0 -16 -3 -13 -7 10 -9 66
-10 60 0 -2 4 0 7 5 7 6 0 12 7 16 15 7 19 -3 19 -28 0z"/>
<path d="M4410 6389 c0 -5 5 -7 10 -4 6 3 10 8 10 11 0 2 -4 4 -10 4 -5 0 -10
-5 -10 -11z"/>
<path d="M4324 6365 c-8 -20 3 -48 16 -40 6 4 7 11 4 17 -4 6 -1 14 6 18 8 5
7 9 -5 13 -9 4 -18 1 -21 -8z"/>
<path d="M3562 6279 c-9 -13 -10 -25 -4 -31 13 -13 31 13 23 34 -6 16 -7 16
-19 -3z"/>
<path d="M3537 6221 c-3 -12 1 -22 9 -25 10 -4 14 2 14 19 0 30 -16 33 -23 6z"/>
<path d="M4325 6190 c-3 -5 1 -10 9 -10 9 0 16 5 16 10 0 6 -4 10 -9 10 -6 0
-13 -4 -16 -10z"/>
<path d="M3547 6153 c-13 -12 -7 -19 19 -21 22 -2 24 0 10 13 -16 17 -20 18
-29 8z"/>
<path d="M3545 6119 c-9 -14 -2 -20 14 -10 8 6 9 11 3 15 -6 3 -14 1 -17 -5z"/>
<path d="M3520 6105 c0 -5 5 -17 10 -25 5 -8 10 -10 10 -5 0 6 -5 17 -10 25
-5 8 -10 11 -10 5z"/>
<path d="M5815 6099 c-4 -6 -5 -12 -2 -15 2 -3 7 2 10 11 7 17 1 20 -8 4z"/>
<path d="M5740 6070 c0 -5 5 -10 11 -10 5 0 7 5 4 10 -3 6 -8 10 -11 10 -2 0
-4 -4 -4 -10z"/>
<path d="M3527 6040 c-3 -13 -2 -29 3 -34 14 -14 17 -5 10 29 -6 30 -6 30 -13
5z"/>
<path d="M4251 6024 c0 -11 3 -14 6 -6 3 7 2 16 -1 19 -3 4 -6 -2 -5 -13z"/>
<path d="M4270 6024 c0 -8 5 -12 10 -9 6 3 10 10 10 16 0 5 -4 9 -10 9 -5 0
-10 -7 -10 -16z"/>
<path d="M4246 5954 c-22 -21 -20 -27 4 -12 11 7 20 16 20 20 0 12 -7 10 -24
-8z"/>
<path d="M5820 5930 c-11 -7 -12 -12 -3 -21 8 -8 14 -6 22 10 12 22 5 27 -19
11z"/>
<path d="M3470 5884 c-10 -12 -11 -17 -1 -27 10 -9 11 -8 6 5 -4 11 -1 17 12
20 12 2 14 6 7 11 -7 4 -17 0 -24 -9z"/>
<path d="M5831 5876 c-7 -8 -21 -12 -34 -8 -12 3 -19 1 -15 -3 11 -11 98 -13
105 -2 3 5 0 14 -7 20 -10 10 -11 8 -6 -7 7 -19 6 -19 -12 -3 -16 15 -21 15
-31 3z"/>
<path d="M3426 5814 c-10 -27 -7 -36 9 -20 8 8 15 19 15 25 0 17 -17 13 -24
-5z"/>
<path d="M5595 5520 c3 -5 8 -10 11 -10 2 0 4 5 4 10 0 6 -5 10 -11 10 -5 0
-7 -4 -4 -10z"/>
<path d="M5630 5451 c-12 -24 -13 -31 -1 -31 5 0 11 11 13 25 6 30 2 32 -12 6z"/>
<path d="M4362 5395 c1 -14 8 -25 15 -25 14 0 16 10 7 34 -10 25 -24 19 -22
-9z"/>
<path d="M5620 5350 c0 -5 5 -10 11 -10 5 0 7 5 4 10 -3 6 -8 10 -11 10 -2 0
-4 -4 -4 -10z"/>
<path d="M5640 5315 c-11 -13 -10 -14 4 -9 9 3 16 10 16 15 0 13 -6 11 -20 -6z"/>
<path d="M3752 5248 c2 -6 10 -13 16 -14 7 -1 8 0 2 3 -5 2 -8 9 -4 14 3 5 0
9 -6 9 -7 0 -10 -5 -8 -12z"/>
<path d="M5550 5239 c0 -5 5 -7 10 -4 6 3 10 8 10 11 0 2 -4 4 -10 4 -5 0 -10
-5 -10 -11z"/>
<path d="M5605 5200 c-3 -6 1 -7 9 -4 18 7 21 14 7 14 -6 0 -13 -4 -16 -10z"/>
<path d="M3104 5070 c0 -13 4 -16 10 -10 7 7 7 13 0 20 -6 6 -10 3 -10 -10z"/>
<path d="M4215 5070 c-4 -6 -11 -7 -17 -4 -7 4 -8 2 -4 -4 4 -7 1 -12 -8 -12
-9 0 -16 -4 -16 -10 0 -5 4 -10 9 -10 5 0 7 -10 5 -22 -2 -13 -2 -17 2 -10 8
16 21 15 27 -2 5 -11 -1 -13 -26 -9 -18 2 -46 5 -63 7 -18 1 -38 6 -45 12 -24
19 -58 24 -52 8 4 -12 0 -12 -23 -4 -31 12 -59 6 -48 -11 4 -7 3 -9 -3 -6 -6
4 -16 0 -23 -8 -21 -25 -30 -21 -95 43 -19 18 -36 28 -39 23 -3 -5 -15 -7 -27
-4 -12 3 -24 1 -28 -4 -3 -6 -28 -14 -56 -19 -39 -8 -49 -13 -47 -27 2 -11 -2
-15 -13 -11 -10 4 -15 0 -15 -12 0 -11 -4 -15 -8 -9 -13 18 -53 17 -80 -2 -45
-30 -73 -43 -93 -43 -12 0 -19 -7 -19 -20 0 -11 -4 -20 -9 -20 -15 0 -5 -50
13 -68 16 -16 18 -16 31 2 10 13 21 17 40 12 18 -5 27 -2 31 8 7 18 34 9 34
-11 0 -8 16 -35 36 -59 20 -24 31 -44 25 -44 -6 0 -11 5 -11 11 0 5 -5 7 -10
4 -22 -13 8 -95 35 -95 8 0 22 -13 32 -30 16 -28 26 -34 46 -31 4 0 7 -3 7 -9
0 -5 5 -10 10 -10 6 0 21 -9 33 -20 20 -19 132 -60 164 -60 8 0 11 -4 8 -10
-3 -5 4 -10 17 -10 13 1 46 -1 73 -3 29 -2 53 1 58 7 5 8 10 6 18 -4 8 -11 12
-12 16 -2 2 6 14 12 24 12 11 0 33 7 48 15 16 8 32 11 35 7 4 -3 4 2 0 13 -6
16 -5 18 7 8 7 -7 22 -12 34 -12 16 1 17 2 3 6 -11 3 -17 13 -15 26 1 13 -3
21 -10 20 -7 -2 -10 4 -7 11 3 8 12 12 19 10 10 -4 13 3 13 26 -1 39 -18 51
-19 13 -1 -17 -3 -21 -6 -10 -2 9 -9 14 -15 11 -7 -5 -9 2 -4 19 4 19 1 29
-11 36 -15 9 -14 10 10 11 15 0 39 7 52 16 15 10 36 14 53 11 17 -3 34 1 45
11 17 15 17 15 11 -2 -6 -16 -4 -17 14 -7 12 6 25 17 29 24 15 23 50 36 114
42 66 6 138 24 140 34 0 3 2 14 4 24 2 9 -3 17 -10 17 -8 0 -11 8 -8 21 4 14
0 25 -10 31 -10 5 -14 15 -10 25 5 12 2 15 -10 10 -9 -3 -17 -2 -17 4 0 6 -4
7 -10 4 -5 -3 -10 -2 -10 4 0 6 -7 8 -17 4 -13 -5 -15 -2 -11 15 4 15 2 22 -8
22 -8 0 -15 -10 -15 -22 -1 -19 -2 -19 -6 -5 -3 11 -11 16 -19 13 -8 -3 -17 1
-20 8 -5 14 -22 14 -56 1 -10 -4 -18 -3 -18 2 0 5 -9 9 -20 10 -25 2 -26 -6
-3 -23 10 -7 15 -15 12 -19 -13 -12 -41 28 -36 52 5 27 1 29 -19 8 -17 -17
-34 -20 -34 -5 0 5 -6 7 -14 4 -7 -3 -16 2 -20 12 -4 12 -2 15 9 10 9 -3 15 0
15 9 0 8 -7 15 -16 15 -8 0 -13 4 -10 8 3 5 -1 9 -9 9 -11 0 -13 -8 -8 -26 4
-21 3 -24 -7 -14 -7 6 -19 9 -28 6 -12 -5 -14 -1 -10 15 7 23 3 28 -7 12z
m115 -104 c14 -18 14 -19 -8 -7 -12 7 -20 17 -16 22 3 6 7 9 8 7 1 -2 8 -12
16 -22z m-605 -146 c3 -5 1 -10 -4 -10 -6 0 -11 5 -11 10 0 6 2 10 4 10 3 0 8
-4 11 -10z m315 -40 c0 -5 -4 -12 -10 -15 -5 -3 -10 -4 -10 -1 0 2 -3 12 -6
20 -5 12 -2 15 10 10 9 -3 16 -10 16 -14z m-266 -2 c-5 -8 0 -9 14 -6 12 4 20
2 16 -3 -3 -5 2 -9 10 -9 9 0 16 -7 16 -16 0 -9 5 -12 13 -8 7 5 6 0 -3 -11
-14 -17 -13 -17 10 -10 23 7 24 6 11 -9 -8 -9 -20 -15 -27 -12 -8 3 -11 0 -7
-10 4 -12 0 -14 -22 -8 -20 5 -26 4 -21 -5 4 -6 12 -9 17 -6 5 4 9 1 9 -4 0
-6 -14 -11 -30 -11 -23 0 -33 6 -40 24 -5 13 -15 28 -23 33 -23 13 -24 36 -2
60 21 22 72 33 59 11z m216 -14 c0 -8 -4 -12 -10 -9 -5 3 -10 10 -10 16 0 5 5
9 10 9 6 0 10 -7 10 -16z m164 10 c9 -3 16 -10 16 -15 0 -13 -46 -59 -53 -52
-4 3 -7 -2 -7 -11 0 -12 -5 -16 -15 -13 -8 4 -17 2 -21 -4 -10 -16 -55 -30
-75 -24 -17 6 -18 8 -3 22 8 9 13 22 9 31 -4 12 -3 13 10 2 12 -10 15 -10 15
4 0 16 15 22 23 9 2 -5 3 -3 1 3 -7 34 57 65 100 48z m220 -9 c-4 -8 -8 -15
-10 -15 -2 0 -4 7 -4 15 0 8 4 15 10 15 5 0 7 -7 4 -15z m-454 -25 c0 -5 -4
-10 -10 -10 -5 0 -10 5 -10 10 0 6 5 10 10 10 6 0 10 -4 10 -10z"/>
<path d="M3720 4735 c0 -8 4 -15 10 -15 5 0 7 7 4 15 -4 8 -8 15 -10 15 -2 0
-4 -7 -4 -15z"/>
<path d="M4320 5036 c0 -17 14 -29 23 -20 8 8 -3 34 -14 34 -5 0 -9 -6 -9 -14z"/>
<path d="M5597 4980 c9 -10 10 -17 1 -27 -8 -11 -7 -12 6 -7 21 8 20 18 -1 35
-15 11 -16 11 -6 -1z"/>
<path d="M3145 4951 c6 -11 4 -13 -8 -8 -13 5 -14 2 -5 -24 5 -16 14 -29 20
-29 6 0 8 6 5 14 -3 8 0 16 7 18 9 2 7 9 -7 23 -11 11 -16 14 -12 6z"/>
<path d="M5468 4893 c7 -3 16 -2 19 1 4 3 -2 6 -13 5 -11 0 -14 -3 -6 -6z"/>
<path d="M3155 4870 c-3 -5 -1 -10 4 -10 6 0 11 5 11 10 0 6 -2 10 -4 10 -3 0
-8 -4 -11 -10z"/>
<path d="M5560 4871 c0 -5 5 -13 10 -16 6 -3 10 -2 10 4 0 5 -4 13 -10 16 -5
3 -10 2 -10 -4z"/>
<path d="M3180 4837 c0 -10 8 -17 18 -17 9 0 13 4 7 8 -5 4 -13 11 -17 16 -5
5 -8 2 -8 -7z"/>
<path d="M5510 4830 c-9 -6 -10 -10 -3 -10 6 0 15 5 18 10 8 12 4 12 -15 0z"/>
<path d="M3185 4770 c3 -5 8 -10 11 -10 2 0 4 5 4 10 0 6 -5 10 -11 10 -5 0
-7 -4 -4 -10z"/>
<path d="M5457 4739 c7 -7 15 -10 18 -7 3 3 -2 9 -12 12 -14 6 -15 5 -6 -5z"/>
<path d="M3256 4695 c-3 -9 0 -15 9 -15 8 0 15 7 15 15 0 8 -4 15 -9 15 -5 0
-11 -7 -15 -15z"/>
<path d="M5417 4606 c-3 -8 1 -17 9 -20 8 -3 14 1 14 9 0 20 -17 28 -23 11z"/>
<path d="M5335 4549 c-4 -6 -5 -12 -2 -15 2 -3 7 2 10 11 7 17 1 20 -8 4z"/>
<path d="M5241 4543 c-1 -17 16 -25 25 -12 4 7 3 9 -4 5 -5 -3 -13 0 -15 6 -4
9 -6 10 -6 1z"/>
<path d="M4126 4452 c-3 -6 -1 -14 5 -17 14 -9 20 -2 10 14 -6 8 -11 9 -15 3z"/>
<path d="M5290 4450 c-12 -8 -12 -10 -1 -10 11 0 11 -3 0 -17 -13 -15 -12 -15
11 -3 15 8 20 15 12 18 -6 2 -10 8 -6 13 7 11 3 11 -16 -1z"/>
<path d="M3541 4303 c9 -25 0 -30 -19 -11 -7 7 -12 9 -12 6 0 -4 14 -17 32
-29 l31 -22 -7 29 c-4 16 -7 34 -8 40 -1 6 -7 11 -14 11 -9 0 -10 -7 -3 -24z"/>
<path d="M4985 4310 c4 -6 11 -8 16 -5 14 9 11 15 -7 15 -8 0 -12 -5 -9 -10z"/>
<path d="M5025 4300 c6 -9 0 -11 -24 -8 -17 2 -31 1 -31 -4 0 -4 7 -8 15 -8 8
0 15 -5 15 -11 0 -8 4 -8 13 -1 6 5 21 12 32 14 19 4 19 5 -4 17 -18 10 -22
10 -16 1z"/>
<path d="M4914 4270 c0 -13 4 -16 10 -10 7 7 7 13 0 20 -6 6 -10 3 -10 -10z"/>
<path d="M4655 4230 c-3 -6 1 -7 9 -4 18 7 21 14 7 14 -6 0 -13 -4 -16 -10z"/>
<path d="M4615 4187 c-4 -11 -14 -16 -22 -12 -11 3 -13 1 -10 -10 4 -8 2 -17
-3 -20 -4 -3 -10 0 -12 7 -3 8 -6 7 -10 -3 -9 -22 24 -20 40 2 9 14 20 17 43
12 24 -5 28 -3 23 11 -5 12 -10 14 -19 6 -10 -8 -14 -7 -18 7 -4 17 -4 17 -12
0z"/>
<path d="M4707 4170 c-3 -11 -2 -20 1 -21 47 -6 70 -2 86 13 19 18 19 18 -7
18 -15 0 -27 -4 -27 -10 0 -5 -9 -10 -21 -10 -15 0 -19 5 -15 15 3 8 2 15 -3
15 -5 0 -11 -9 -14 -20z"/>
<path d="M4830 4159 c0 -5 5 -7 10 -4 6 3 10 8 10 11 0 2 -4 4 -10 4 -5 0 -10
-5 -10 -11z"/>
<path d="M4450 4059 c0 -5 5 -7 10 -4 6 3 10 8 10 11 0 2 -4 4 -10 4 -5 0 -10
-5 -10 -11z"/>
<path d="M4415 4050 c-16 -7 -17 -9 -3 -9 9 -1 20 4 23 9 7 11 7 11 -20 0z"/>
<path d="M4340 4020 c0 -5 5 -10 10 -10 6 0 10 5 10 10 0 6 -4 10 -10 10 -5 0
-10 -4 -10 -10z"/>
<path d="M6985 6390 c-3 -5 -1 -10 4 -10 6 0 11 5 11 10 0 6 -2 10 -4 10 -3 0
-8 -4 -11 -10z"/>
<path d="M7747 5723 c-10 -9 -9 -23 1 -23 5 0 9 7 9 15 0 17 -1 18 -10 8z"/>
<path d="M7679 5673 c-13 -15 -12 -15 9 -4 23 12 28 21 13 21 -5 0 -15 -7 -22
-17z"/>
<path d="M7740 5679 c0 -5 5 -7 10 -4 6 3 10 8 10 11 0 2 -4 4 -10 4 -5 0 -10
-5 -10 -11z"/>
<path d="M7883 5587 c4 -10 7 -24 7 -30 0 -8 3 -8 11 0 9 9 7 16 -7 30 -17 17
-18 17 -11 0z"/>
<path d="M7374 5529 c-3 -6 -1 -16 5 -22 8 -8 11 -5 11 11 0 24 -5 28 -16 11z"/>
<path d="M7085 5380 c-3 -5 1 -10 10 -10 9 0 13 5 10 10 -3 6 -8 10 -10 10 -2
0 -7 -4 -10 -10z"/>
<path d="M7070 5190 c-9 -6 -10 -10 -3 -10 6 0 15 5 18 10 8 12 4 12 -15 0z"/>
<path d="M2550 4066 c0 -2 7 -9 15 -16 9 -7 15 -8 15 -2 0 5 -7 12 -15 16 -8
3 -15 4 -15 2z"/>
<path d="M2580 4006 c0 -2 7 -9 15 -16 9 -7 15 -8 15 -2 0 5 -7 12 -15 16 -8
3 -15 4 -15 2z"/>
<path d="M2618 3970 c-6 -33 0 -50 18 -50 8 0 14 -4 14 -8 0 -5 7 -9 16 -9 15
0 15 2 1 12 -8 6 -22 26 -29 45 -14 34 -15 34 -20 10z"/>
<path d="M2530 3921 c0 -5 7 -12 16 -15 14 -5 15 -4 4 9 -14 17 -20 19 -20 6z"/>
<path d="M2688 3867 c12 -13 22 -26 22 -30 0 -9 93 -110 135 -146 16 -14 55
-51 85 -81 61 -59 120 -105 120 -93 0 5 -12 17 -27 28 -76 57 -273 251 -273
270 0 12 -64 75 -75 75 -5 0 1 -10 13 -23z"/>
<path d="M3927 3659 c7 -7 15 -10 18 -7 3 3 -2 9 -12 12 -14 6 -15 5 -6 -5z"/>
<path d="M4883 3614 c0 -18 2 -22 8 -13 11 18 11 39 0 39 -5 0 -8 -12 -8 -26z"/>
<path d="M4691 3593 c5 -14 7 -28 4 -32 -2 -5 7 -6 21 -3 23 4 23 5 7 19 -10
8 -12 12 -5 8 6 -3 12 -3 12 2 0 4 -11 13 -24 19 -23 11 -24 10 -15 -13z"/>
<path d="M4925 3600 c3 -5 8 -10 11 -10 2 0 4 5 4 10 0 6 -5 10 -11 10 -5 0
-7 -4 -4 -10z"/>
<path d="M5657 3593 c-13 -13 -7 -21 13 -16 11 3 17 9 14 14 -6 11 -18 12 -27
2z"/>
<path d="M4600 3562 c0 -12 19 -26 26 -19 2 2 -2 10 -11 17 -9 8 -15 8 -15 2z"/>
<path d="M3060 3506 c0 -3 15 -15 33 -27 23 -17 28 -18 18 -6 -14 18 -51 42
-51 33z"/>
<path d="M5460 3489 c0 -5 5 -7 10 -4 6 3 10 8 10 11 0 2 -4 4 -10 4 -5 0 -10
-5 -10 -11z"/>
<path d="M4110 3355 c0 -8 5 -15 10 -15 6 0 10 7 10 15 0 8 -4 15 -10 15 -5 0
-10 -7 -10 -15z"/>
<path d="M4385 3290 c4 -6 11 -8 16 -5 14 9 11 15 -7 15 -8 0 -12 -5 -9 -10z"/>
<path d="M3400 3279 c0 -5 5 -7 10 -4 6 3 10 8 10 11 0 2 -4 4 -10 4 -5 0 -10
-5 -10 -11z"/>
<path d="M3040 3191 c0 -10 19 -25 25 -20 1 2 -3 10 -11 17 -8 7 -14 8 -14 3z"/>
<path d="M3650 3150 c0 -5 5 -10 11 -10 5 0 7 5 4 10 -3 6 -8 10 -11 10 -2 0
-4 -4 -4 -10z"/>
<path d="M6355 3150 c-3 -5 -2 -10 4 -10 5 0 13 5 16 10 3 6 2 10 -4 10 -5 0
-13 -4 -16 -10z"/>
<path d="M6235 3140 c-3 -5 -2 -10 4 -10 5 0 13 5 16 10 3 6 2 10 -4 10 -5 0
-13 -4 -16 -10z"/>
<path d="M6403 3143 c-7 -2 -13 -11 -13 -19 0 -10 -5 -12 -12 -8 -9 5 -9 3 1
-9 15 -19 31 -14 31 10 0 13 3 13 15 3 17 -14 20 -40 5 -40 -5 0 -6 -8 -3 -17
6 -14 9 -11 20 15 12 29 11 34 -7 52 -11 11 -21 20 -22 19 -2 0 -9 -3 -15 -6z"/>
<path d="M6445 3139 c-3 -4 2 -6 10 -5 21 3 28 13 10 13 -9 0 -18 -4 -20 -8z"/>
<path d="M3690 3130 c20 -13 43 -13 35 0 -3 6 -16 10 -28 10 -18 0 -19 -2 -7
-10z"/>
<path d="M6286 3131 c-27 -5 -50 -31 -28 -31 11 0 72 30 72 36 0 5 -3 4 -44
-5z"/>
<path d="M6150 3109 c-19 -11 -27 -18 -17 -15 51 16 67 17 67 7 0 -6 -7 -11
-15 -11 -8 0 -19 -8 -24 -19 -9 -15 -7 -18 7 -17 9 0 22 6 28 11 16 15 25 45
13 45 -6 0 -7 5 -4 10 10 16 -17 11 -55 -11z"/>
<path d="M6353 3083 c9 -9 20 -13 24 -9 4 4 1 11 -7 16 -25 16 -35 11 -17 -7z"/>
<path d="M6088 3079 c-4 -38 -2 -44 12 -51 31 -14 48 -9 43 12 -6 24 -26 39
-21 17 2 -9 -1 -16 -7 -16 -5 -1 -11 8 -11 19 -2 25 -13 39 -16 19z"/>
<path d="M6220 3078 c0 -4 4 -8 9 -8 6 0 12 4 15 8 3 5 -1 9 -9 9 -8 0 -15 -4
-15 -9z"/>
<path d="M6380 3060 c-9 -6 -10 -10 -3 -10 6 0 15 5 18 10 8 12 4 12 -15 0z"/>
<path d="M6451 3044 c0 -11 3 -14 6 -6 3 7 2 16 -1 19 -3 4 -6 -2 -5 -13z"/>
<path d="M6038 3028 c-25 -30 -22 -43 3 -19 12 11 20 24 18 30 -2 6 -12 1 -21
-11z"/>
<path d="M5875 3030 c-3 -5 -2 -10 4 -10 5 0 13 5 16 10 3 6 2 10 -4 10 -5 0
-13 -4 -16 -10z"/>
<path d="M5960 3029 c0 -6 -7 -8 -15 -5 -9 3 -18 -1 -22 -10 -5 -13 -7 -13
-14 -2 -7 10 -9 9 -9 -4 0 -21 11 -23 29 -5 10 10 15 8 27 -7 11 -16 14 -17
14 -4 0 9 3 23 6 32 3 9 1 16 -5 16 -6 0 -11 -5 -11 -11z"/>
<path d="M5588 3013 c7 -3 16 -2 19 1 4 3 -2 6 -13 5 -11 0 -14 -3 -6 -6z"/>
<path d="M6250 3010 c0 -5 5 -10 10 -10 6 0 10 5 10 10 0 6 -4 10 -10 10 -5 0
-10 -4 -10 -10z"/>
<path d="M4295 3000 c-3 -6 1 -7 9 -4 18 7 21 14 7 14 -6 0 -13 -4 -16 -10z"/>
<path d="M5764 2993 c3 -16 -1 -23 -12 -23 -13 0 -12 -3 4 -14 17 -13 20 -13
25 2 4 9 3 19 -1 22 -4 3 -10 12 -14 20 -3 8 -4 5 -2 -7z"/>
<path d="M6070 3000 c0 -5 5 -10 10 -10 6 0 10 5 10 10 0 6 -4 10 -10 10 -5 0
-10 -4 -10 -10z"/>
<path d="M6361 2994 c0 -11 3 -14 6 -6 3 7 2 16 -1 19 -3 4 -6 -2 -5 -13z"/>
<path d="M5834 2988 c-3 -4 4 -8 15 -8 12 0 21 4 21 8 0 5 -7 9 -15 9 -9 0
-18 -4 -21 -9z"/>
<path d="M5880 2985 c0 -8 4 -15 10 -15 5 0 7 7 4 15 -4 8 -8 15 -10 15 -2 0
-4 -7 -4 -15z"/>
<path d="M6380 2959 c0 -5 5 -7 10 -4 6 3 10 8 10 11 0 2 -4 4 -10 4 -5 0 -10
-5 -10 -11z"/>
<path d="M4680 2930 c0 -5 7 -7 15 -4 8 4 15 8 15 10 0 2 -7 4 -15 4 -8 0 -15
-4 -15 -10z"/>
<path d="M6335 2930 c-3 -6 1 -7 9 -4 18 7 21 14 7 14 -6 0 -13 -4 -16 -10z"/>
<path d="M5428 2923 c7 -3 16 -2 19 1 4 3 -2 6 -13 5 -11 0 -14 -3 -6 -6z"/>
<path d="M5556 2915 c4 -8 8 -15 10 -15 2 0 4 7 4 15 0 8 -4 15 -10 15 -5 0
-7 -7 -4 -15z"/>
<path d="M5390 2909 c0 -5 5 -7 10 -4 6 3 10 8 10 11 0 2 -4 4 -10 4 -5 0 -10
-5 -10 -11z"/>
<path d="M5505 2900 c-3 -5 -2 -10 4 -10 5 0 13 5 16 10 3 6 2 10 -4 10 -5 0
-13 -4 -16 -10z"/>
<path d="M5446 2888 c3 -4 12 -8 20 -8 8 0 14 4 14 8 0 4 -9 8 -19 8 -11 0
-17 -4 -15 -8z"/>
<path d="M6300 2889 c0 -5 5 -7 10 -4 6 3 10 8 10 11 0 2 -4 4 -10 4 -5 0 -10
-5 -10 -11z"/>
<path d="M6250 2881 c0 -5 7 -11 14 -14 10 -4 13 -1 9 9 -6 15 -23 19 -23 5z"/>
<path d="M6194 2873 c5 -8 1 -13 -11 -13 -15 0 -16 -2 -3 -10 21 -13 38 6 21
23 -11 10 -13 10 -7 0z"/>
<path d="M5225 2660 c-3 -6 1 -7 9 -4 18 7 21 14 7 14 -6 0 -13 -4 -16 -10z"/>
<path d="M5058 2653 c6 -2 18 -2 25 0 6 3 1 5 -13 5 -14 0 -19 -2 -12 -5z"/>
<path d="M6216 2584 c-3 -8 -2 -12 4 -9 6 3 10 -1 10 -11 0 -13 3 -14 14 -5 9
8 16 8 20 2 7 -11 -28 -51 -44 -51 -5 0 -10 -9 -10 -20 0 -23 -4 -24 -30 -10
-13 7 -21 7 -25 0 -3 -5 1 -10 11 -10 13 0 14 -3 4 -15 -8 -9 -9 -15 -2 -15 6
0 14 5 18 11 4 8 9 7 15 -2 6 -11 9 -11 13 1 2 8 7 23 10 33 3 11 15 21 25 24
11 3 22 14 25 25 5 22 -16 63 -27 51 -4 -3 -7 -1 -7 5 0 17 -17 15 -24 -4z"/>
<path d="M6112 2564 c-7 -8 -8 -14 -3 -14 10 0 25 19 20 25 -2 1 -10 -3 -17
-11z"/>
<path d="M5926 2557 c3 -10 9 -15 12 -12 3 3 0 11 -7 18 -10 9 -11 8 -5 -6z"/>
<path d="M6060 2549 c0 -5 5 -7 10 -4 6 3 10 8 10 11 0 2 -4 4 -10 4 -5 0 -10
-5 -10 -11z"/>
<path d="M6175 2500 c3 -5 11 -10 16 -10 6 0 7 5 4 10 -3 6 -11 10 -16 10 -6
0 -7 -4 -4 -10z"/>
<path d="M6045 2490 c-3 -5 -1 -10 4 -10 6 0 11 5 11 10 0 6 -2 10 -4 10 -3 0
-8 -4 -11 -10z"/>
<path d="M6076 2488 c3 -5 10 -6 15 -3 13 9 11 12 -6 12 -8 0 -12 -4 -9 -9z"/>
<path d="M6230 2479 c0 -5 5 -7 10 -4 6 3 10 8 10 11 0 2 -4 4 -10 4 -5 0 -10
-5 -10 -11z"/>
<path d="M6004 2468 c-3 -5 -3 -12 0 -15 3 -4 6 -1 6 5 0 6 6 9 14 6 8 -3 13
-11 10 -18 -10 -27 47 -53 75 -35 12 8 10 8 -8 3 -17 -4 -22 -2 -19 7 9 28
-63 71 -78 47z"/>
<path d="M6136 2443 c-4 -10 1 -25 14 -37 17 -17 20 -18 20 -4 0 9 6 19 13 22
6 3 -1 3 -16 1 -24 -3 -27 -1 -22 16 8 23 0 26 -9 2z"/>
<path d="M6105 2440 c3 -5 8 -10 11 -10 2 0 4 5 4 10 0 6 -5 10 -11 10 -5 0
-7 -4 -4 -10z"/>
<path d="M6010 2401 c0 -24 16 -36 26 -20 4 8 3 9 -4 5 -7 -4 -12 -2 -12 3 0
6 5 11 10 11 6 0 10 5 10 10 0 6 -7 10 -15 10 -8 0 -15 -9 -15 -19z"/>
<path d="M6096 2378 c3 -5 10 -6 15 -3 13 9 11 12 -6 12 -8 0 -12 -4 -9 -9z"/>
<path d="M6143 2363 c-17 -6 9 -33 37 -38 15 -3 20 1 19 18 0 12 -3 16 -6 10
-2 -7 -9 -13 -14 -13 -6 0 -8 4 -5 9 7 11 -14 20 -31 14z"/>
<path d="M6068 2313 c7 -3 16 -2 19 1 4 3 -2 6 -13 5 -11 0 -14 -3 -6 -6z"/>
<path d="M6015 2280 c3 -5 8 -10 11 -10 2 0 4 5 4 10 0 6 -5 10 -11 10 -5 0
-7 -4 -4 -10z"/>
<path d="M6050 2279 c0 -5 5 -7 10 -4 6 3 10 8 10 11 0 2 -4 4 -10 4 -5 0 -10
-5 -10 -11z"/>
<path d="M5985 2270 c-3 -5 -1 -10 4 -10 6 0 11 5 11 10 0 6 -2 10 -4 10 -3 0
-8 -4 -11 -10z"/>
<path d="M5630 2045 c-5 -14 -15 -25 -21 -25 -8 0 -8 -4 1 -15 7 -8 16 -12 21
-9 5 3 13 -5 17 -17 l9 -23 6 23 c4 18 1 24 -14 28 -25 7 -24 17 3 43 19 17
19 20 5 20 -10 0 -22 -11 -27 -25z"/>
<path d="M5700 2049 c0 -5 5 -7 10 -4 6 3 10 8 10 11 0 2 -4 4 -10 4 -5 0 -10
-5 -10 -11z"/>
<path d="M6093 2040 c-18 -9 -30 -20 -27 -23 9 -8 52 14 58 29 3 8 4 13 3 13
-1 -1 -17 -9 -34 -19z"/>
<path d="M5560 2039 c0 -5 5 -7 10 -4 6 3 10 8 10 11 0 2 -4 4 -10 4 -5 0 -10
-5 -10 -11z"/>
<path d="M5665 2040 c-3 -5 -1 -10 4 -10 6 0 11 5 11 10 0 6 -2 10 -4 10 -3 0
-8 -4 -11 -10z"/>
<path d="M5836 2041 c-3 -5 -16 -7 -29 -4 -22 5 -22 5 -2 -9 27 -20 51 -19 52
4 2 19 -12 25 -21 9z"/>
<path d="M5903 2043 c-16 -6 -17 -33 -3 -33 11 0 26 28 19 34 -2 2 -10 1 -16
-1z"/>
<path d="M5927 2013 c-14 -16 -14 -19 1 -33 14 -13 15 -12 9 4 -4 10 -2 25 4
32 17 20 5 17 -14 -3z"/>
<path d="M6032 1988 c-6 -13 -13 -30 -14 -38 -2 -8 -7 -19 -13 -23 -6 -5 -1
-7 11 -4 17 4 20 1 17 -14 -3 -11 -10 -19 -15 -19 -5 0 -6 -5 -3 -10 4 -6 10
-8 14 -5 5 2 11 -9 15 -25 3 -17 10 -30 17 -30 6 0 9 6 6 13 -2 6 0 20 4 29 7
12 4 18 -11 23 -11 4 -18 11 -14 16 3 5 10 7 15 4 5 -3 6 1 3 10 -4 8 0 23 7
32 12 14 11 15 -9 9 -16 -5 -22 -3 -22 8 0 8 5 18 10 21 12 7 13 25 2 25 -5 0
-14 -10 -20 -22z"/>
<path d="M6115 1990 c-3 -5 -1 -10 4 -10 6 0 11 5 11 10 0 6 -2 10 -4 10 -3 0
-8 -4 -11 -10z"/>
<path d="M6115 1960 c-3 -5 -1 -10 4 -10 6 0 11 5 11 10 0 6 -2 10 -4 10 -3 0
-8 -4 -11 -10z"/>
<path d="M6093 1927 c-2 -14 1 -16 11 -8 7 6 15 8 18 5 3 -3 9 -1 12 4 3 5 -5
12 -17 14 -17 3 -23 0 -24 -15z"/>
<path d="M6165 1920 c-3 -5 -12 -7 -19 -4 -7 3 -18 -2 -25 -10 -15 -18 -3 -26
42 -32 18 -2 26 -1 20 2 -8 4 -11 15 -7 30 6 24 0 32 -11 14z"/>
<path d="M6085 1890 c3 -5 16 -15 28 -21 22 -12 22 -12 3 10 -19 21 -43 30
-31 11z"/>
<path d="M5815 1880 c4 -6 11 -8 16 -5 14 9 11 15 -7 15 -8 0 -12 -5 -9 -10z"/>
<path d="M5945 1870 c3 -5 11 -10 16 -10 6 0 7 5 4 10 -3 6 -11 10 -16 10 -6
0 -7 -4 -4 -10z"/>
<path d="M5980 1870 c0 -5 5 -10 11 -10 5 0 7 5 4 10 -3 6 -8 10 -11 10 -2 0
-4 -4 -4 -10z"/>
<path d="M3865 1740 c3 -5 8 -10 11 -10 2 0 4 5 4 10 0 6 -5 10 -11 10 -5 0
-7 -4 -4 -10z"/>
<path d="M6271 1944 c0 -11 3 -14 6 -6 3 7 2 16 -1 19 -3 4 -6 -2 -5 -13z"/>
<path d="M3870 790 c0 -12 28 -25 36 -17 3 3 -4 10 -15 17 -15 7 -21 7 -21 0z"/>
<path d="M3905 740 c3 -5 8 -10 11 -10 2 0 4 5 4 10 0 6 -5 10 -11 10 -5 0 -7
-4 -4 -10z"/>
<path d="M3935 720 c3 -5 8 -10 11 -10 2 0 4 5 4 10 0 6 -5 10 -11 10 -5 0 -7
-4 -4 -10z"/>
<path d="M8810 645 c0 -9 5 -15 11 -13 6 2 11 8 11 13 0 5 -5 11 -11 13 -6 2
-11 -4 -11 -13z"/>
<path d="M8685 540 c-3 -5 -1 -10 4 -10 6 0 11 5 11 10 0 6 -2 10 -4 10 -3 0
-8 -4 -11 -10z"/>
</g>
</svg>
